<?xml version="1.0" standalone="no"?>
<!DOCTYPE svg PUBLIC "-//W3C//DTD SVG 20010904//EN"
 "http://www.w3.org/TR/2001/REC-SVG-20010904/DTD/svg10.dtd">
<svg version="1.0" xmlns="http://www.w3.org/2000/svg"
 width="1024.000000pt" height="1024.000000pt" viewBox="0 0 1024.000000 1024.000000"
 preserveAspectRatio="xMidYMid meet">

<g transform="translate(0.000000,1024.000000) scale(0.100000,-0.100000)"
fill="#000000" stroke="none">
<path d="M0 5120 l0 -5120 665 0 c571 0 665 2 665 14 0 41 -65 256 -110 366
-101 244 -212 624 -226 773 -7 76 -6 79 23 120 48 66 90 158 145 310 52 147
182 434 248 547 130 222 382 400 610 431 l78 11 56 -46 c66 -53 88 -61 162
-53 69 7 159 49 272 126 115 79 156 122 221 228 l54 89 81 18 c208 46 268 56
285 47 13 -7 22 -44 40 -156 30 -183 25 -292 -25 -615 -70 -455 -69 -435 -68
-835 1 -387 5 -425 43 -425 24 0 51 36 51 69 0 46 61 324 140 637 43 172 90
381 104 465 20 116 41 198 88 332 l61 177 62 -65 c34 -36 68 -65 74 -65 15 0
115 -157 173 -273 58 -116 94 -205 158 -390 26 -76 56 -147 65 -157 10 -11 31
-20 47 -20 25 0 35 -11 82 -82 29 -46 67 -110 85 -144 39 -74 116 -164 141
-164 26 0 130 -115 181 -201 38 -63 48 -74 74 -77 29 -3 36 -13 114 -170 85
-171 180 -325 205 -335 48 -19 175 179 296 461 18 42 24 47 52 47 28 0 36 7
72 67 55 89 125 170 185 210 65 44 93 79 158 201 72 135 115 187 153 187 39 0
53 23 106 175 24 69 60 164 80 213 47 115 202 414 223 430 56 43 99 82 129
114 19 21 38 35 43 33 16 -10 138 -402 144 -465 12 -119 45 -290 89 -473 57
-232 102 -451 124 -608 17 -123 17 -124 44 -127 39 -5 45 15 63 220 27 319 16
599 -45 1083 -23 190 -26 426 -6 535 8 41 17 101 21 134 l7 59 65 -7 c35 -4
103 -16 149 -27 47 -11 100 -19 117 -17 29 3 35 -3 94 -91 80 -121 99 -141
208 -214 178 -120 259 -157 351 -157 33 0 55 10 114 51 69 49 76 51 132 50
142 -3 369 -119 493 -253 91 -97 229 -345 333 -598 88 -214 107 -253 171 -355
l59 -93 -8 -104 c-11 -134 -101 -505 -180 -738 -50 -148 -83 -263 -114 -402
l-6 -28 600 0 600 0 0 5120 0 5120 -118 0 c-81 0 -122 -4 -131 -12 -8 -7 -11
-8 -8 -2 3 6 1 11 -6 11 -7 0 -13 -10 -13 -23 -2 -25 -37 -64 -58 -64 -7 0
-16 -10 -19 -21 -5 -17 -11 -20 -30 -15 -26 6 -52 -14 -60 -49 -2 -11 -3 -6
-1 12 l3 32 -60 -58 c-32 -32 -59 -63 -59 -69 0 -7 -9 -12 -21 -12 -11 0 -18
-4 -15 -8 3 -5 -5 -14 -17 -19 -83 -39 -223 -108 -227 -112 -3 -3 -12 -7 -20
-9 -8 -2 -16 -8 -18 -13 -2 -5 -9 -9 -15 -9 -12 0 -99 -40 -107 -49 -3 -3 -14
-7 -25 -9 -11 -2 -24 -9 -30 -15 -5 -7 -46 -23 -90 -36 -44 -13 -97 -35 -117
-48 -21 -12 -41 -23 -46 -23 -4 0 -31 -16 -61 -35 -52 -34 -100 -47 -85 -23 5
8 2 9 -9 5 -52 -20 37 58 117 103 22 12 65 38 95 57 31 20 106 58 166 85 245
109 422 222 560 355 l70 68 -39 3 c-58 5 -77 -4 -116 -53 -63 -81 -146 -134
-405 -260 -244 -119 -334 -169 -483 -267 -41 -26 -78 -46 -82 -43 -16 10 -68
130 -104 244 -21 63 -42 123 -47 133 -12 22 -37 23 -64 4 -32 -22 -92 -153
-116 -251 -11 -49 -32 -119 -46 -155 -14 -36 -34 -92 -45 -125 -24 -72 -85
-185 -100 -185 -7 0 -8 12 -4 33 36 172 44 335 25 474 -13 101 -35 148 -69
148 -21 0 -30 -12 -65 -91 -54 -121 -253 -466 -380 -659 -22 -33 -91 -112
-155 -175 -95 -95 -132 -125 -214 -170 -97 -54 -175 -88 -207 -89 -13 -1 -17
15 -23 86 -13 171 -58 451 -102 638 -25 105 -54 234 -64 288 -21 105 -36 144
-61 160 -39 25 -84 -38 -236 -330 -89 -171 -105 -209 -178 -444 -58 -189 -92
-279 -104 -279 -4 0 -36 9 -72 21 -72 24 -109 57 -109 97 0 37 -22 66 -71 94
-30 17 -60 51 -111 125 -79 116 -117 153 -157 153 -30 0 -88 -38 -136 -88 -36
-39 -45 -39 -76 -6 -31 34 -108 84 -130 84 -11 0 -28 28 -54 93 -88 214 -187
395 -232 424 -26 17 -26 17 -68 -30 -52 -59 -113 -161 -206 -344 -43 -86 -78
-143 -86 -143 -26 0 -81 -31 -128 -72 l-46 -41 -52 50 c-115 112 -149 102
-287 -87 -44 -61 -77 -94 -113 -116 -42 -25 -54 -38 -68 -78 -28 -76 -41 -90
-100 -105 -30 -7 -73 -21 -95 -31 l-42 -18 -30 87 c-17 47 -49 155 -72 239
-59 220 -91 305 -192 510 -95 193 -127 242 -159 242 -32 0 -49 -42 -105 -265
-30 -120 -65 -254 -79 -299 -13 -44 -31 -124 -40 -176 -9 -52 -27 -152 -40
-223 -14 -70 -25 -145 -25 -166 0 -22 -4 -43 -10 -46 -18 -11 -274 88 -360
139 -116 69 -236 196 -326 343 -10 18 -82 132 -159 254 -77 123 -165 272 -195
333 -82 165 -110 157 -145 -40 -20 -116 -20 -373 0 -440 33 -108 14 -99 -66
34 -75 123 -82 140 -104 242 -20 97 -51 192 -83 255 -30 61 -105 151 -133 160
-43 14 -74 -43 -113 -205 -14 -56 -27 -105 -30 -107 -2 -2 -48 21 -102 53 -55
31 -162 86 -239 121 -160 74 -313 158 -368 201 -20 16 -58 55 -84 86 -47 56
-48 56 -103 56 l-55 -1 90 -87 c120 -117 252 -203 490 -318 188 -91 335 -176
335 -194 0 -4 -8 -17 -17 -29 l-18 -22 -43 32 c-23 17 -54 32 -67 33 -14 0
-25 4 -25 9 0 4 -5 7 -12 7 -6 0 -63 24 -127 54 -64 30 -137 60 -163 67 -26 7
-46 17 -45 22 3 13 -125 77 -141 72 -8 -3 -10 0 -6 6 4 7 1 10 -7 7 -8 -3 -22
-1 -31 4 -14 6 -18 5 -18 -7 0 -12 -8 -15 -27 -13 -20 2 -27 8 -25 21 2 9 -3
17 -11 17 -8 0 -22 9 -32 20 -10 12 -25 18 -32 16 -8 -3 -13 2 -13 14 0 11 -4
20 -10 20 -5 0 -10 -5 -10 -12 0 -15 -82 63 -119 113 -14 19 -49 61 -76 92
l-49 57 -118 0 -118 0 0 -5120z m9870 4956 c0 -2 -7 -7 -16 -10 -8 -3 -12 -2
-9 4 6 10 25 14 25 6z m-8296 -168 c54 -72 107 -247 111 -364 1 -39 5 -75 8
-80 3 -5 10 -45 16 -88 6 -44 16 -85 22 -92 9 -11 18 -40 23 -74 1 -9 5 -21
10 -28 4 -7 7 -32 6 -55 -4 -58 -2 -69 10 -62 6 4 10 -7 10 -25 0 -17 8 -45
17 -63 9 -18 16 -35 15 -39 -2 -9 22 -28 60 -47 18 -9 38 -26 44 -38 6 -13 14
-20 19 -15 5 4 5 2 1 -5 -4 -7 0 -23 9 -36 8 -13 12 -27 8 -32 -5 -4 -1 -6 8
-3 12 5 15 1 11 -17 -3 -15 3 -30 17 -41 12 -11 21 -30 21 -46 0 -16 4 -28 8
-28 4 0 16 -15 27 -32 21 -38 92 -111 148 -152 20 -16 37 -32 37 -37 0 -4 11
-20 25 -35 35 -38 31 -46 -17 -42 l-43 3 0 -35 c0 -31 -3 -35 -28 -38 -52 -6
-169 45 -217 94 -42 43 -60 54 -60 35 0 -6 28 -39 63 -75 48 -51 69 -66 91
-66 15 0 58 -13 96 -30 92 -40 104 -40 96 5 -4 20 -4 44 -1 55 7 21 65 46 65
28 0 -6 8 -4 18 5 23 21 52 22 52 3 0 -19 10 -25 54 -30 20 -2 43 -12 52 -20
8 -9 12 -16 9 -16 -4 0 16 -18 44 -40 28 -22 50 -46 48 -52 -1 -7 30 -28 68
-47 l70 -36 -88 -3 c-120 -4 -115 -15 38 -75 22 -9 -7 -20 -61 -24 -99 -7
-255 27 -354 77 -62 31 -155 83 -160 90 -10 12 -75 55 -80 52 -11 -5 -40 29
-34 41 4 6 4 9 -1 5 -4 -4 -15 1 -24 10 -9 11 -12 12 -6 3 15 -23 -90 65 -120
101 -15 17 -46 71 -71 120 -24 48 -46 88 -48 88 -2 0 -2 -21 0 -47 2 -27 4
-48 4 -48 1 0 3 -8 5 -17 2 -11 -2 -15 -11 -11 -13 5 -18 17 -15 36 0 4 -3 7
-8 7 -5 0 -15 17 -22 38 -14 44 -28 64 -40 56 -5 -3 -9 15 -9 41 0 25 -7 62
-15 82 -9 21 -23 78 -31 128 -9 49 -18 93 -21 98 -2 4 1 7 6 7 9 0 8 72 -1
108 -1 4 1 54 5 112 4 58 9 200 12 315 3 116 8 218 11 228 3 11 0 17 -9 17
-15 0 -25 -27 -34 -90 -3 -19 -9 -43 -14 -52 -5 -9 -6 -23 -3 -32 3 -8 -2 -36
-11 -61 -12 -29 -16 -60 -13 -89 4 -30 2 -44 -5 -43 -6 1 -12 -9 -13 -23 -1
-14 -6 -72 -12 -130 -9 -82 -8 -159 4 -350 9 -143 13 -291 10 -356 -6 -94 -4
-118 11 -148 9 -20 20 -36 25 -36 4 0 8 -13 8 -29 0 -16 7 -34 15 -41 8 -7 15
-22 15 -34 0 -51 57 -221 80 -236 4 -3 15 -27 24 -55 9 -27 32 -77 51 -110 18
-33 49 -91 68 -130 18 -38 41 -76 50 -84 10 -7 17 -24 17 -36 0 -26 48 -78 63
-68 5 3 7 1 3 -5 -12 -19 48 -125 120 -211 8 -9 36 -45 64 -81 28 -36 59 -72
68 -80 9 -9 26 -27 37 -40 11 -14 -1 -7 -25 15 -195 174 -449 498 -610 778
-97 170 -188 364 -210 452 -55 215 -65 298 -63 540 1 208 3 243 28 360 39 188
69 295 196 703 6 17 14 32 19 32 5 0 20 -15 34 -32z m6902 -15 c9 -44 63 -170
115 -268 93 -174 167 -402 215 -658 35 -186 30 -294 -21 -530 -20 -92 -42
-185 -50 -206 -24 -70 -211 -417 -286 -533 -66 -100 -153 -215 -325 -428 -66
-82 -231 -246 -239 -238 -4 3 29 43 72 88 43 45 82 88 86 96 5 8 31 44 58 80
27 36 58 82 68 102 11 20 33 52 50 71 17 19 31 41 31 48 0 7 4 13 10 13 5 0
19 23 32 50 13 28 30 50 38 50 13 0 13 1 0 10 -10 6 -11 10 -2 10 6 0 12 7 12
15 0 8 4 15 9 15 5 0 16 18 24 39 9 22 21 42 26 45 5 4 13 21 16 39 4 17 14
44 21 59 14 27 22 58 23 91 1 10 5 16 10 13 10 -6 31 37 31 63 0 29 68 222 98
276 26 49 27 55 29 230 6 475 1 630 -26 850 -10 83 -39 186 -56 200 -7 6 -15
21 -19 35 -6 20 -5 22 4 10 9 -13 11 -12 8 5 -2 11 -7 19 -12 17 -5 -2 -17 9
-28 25 l-20 28 7 -88 c3 -48 10 -99 15 -115 5 -15 14 -103 20 -196 6 -94 13
-173 15 -177 9 -14 -26 -396 -40 -441 -8 -26 -15 -56 -15 -67 0 -14 -6 -21
-18 -21 -19 0 -67 -72 -55 -84 3 -3 1 -6 -6 -6 -9 0 -12 9 -9 25 8 38 -11 19
-36 -38 -30 -69 -94 -167 -108 -167 -6 0 -16 -6 -22 -14 -6 -8 -38 -29 -71
-45 -33 -17 -53 -31 -45 -31 8 -1 2 -8 -15 -17 -16 -9 -55 -37 -85 -62 -104
-88 -158 -117 -260 -145 -36 -10 -81 -22 -100 -27 -47 -14 -162 -8 -168 8 -2
8 16 22 44 34 63 26 45 39 -56 39 l-75 0 50 26 c28 15 52 31 53 35 2 5 9 9 15
9 6 0 22 10 35 23 14 12 22 17 18 10 -4 -7 11 -3 34 9 22 12 40 28 40 35 0 7
3 12 8 12 4 -1 14 -1 22 1 11 1 9 4 -5 10 l-20 9 20 1 c11 2 26 2 33 1 6 -1
12 3 12 9 0 6 4 8 10 5 5 -3 7 0 4 9 -8 20 29 39 46 23 10 -9 11 -9 6 0 -4 7
1 12 11 12 10 0 31 3 47 7 l29 7 -6 -72 c-6 -71 -6 -72 16 -65 12 3 47 19 77
35 30 16 71 29 90 29 30 0 46 11 103 67 46 45 65 69 58 76 -7 7 -26 -5 -58
-39 -27 -27 -61 -54 -78 -60 -145 -51 -168 -51 -163 4 2 31 0 36 -24 43 -15 4
-37 15 -50 24 -15 11 -17 15 -5 12 11 -4 17 -1 17 8 0 13 34 55 44 55 12 0 66
57 66 69 0 8 3 11 7 8 3 -4 12 6 20 20 8 16 10 29 4 31 -15 5 58 72 79 72 15
0 20 7 20 25 0 14 9 30 20 37 11 7 20 17 20 23 0 5 26 29 57 53 57 43 57 55 1
26 l-31 -16 7 33 c3 18 7 33 9 34 1 0 24 18 50 39 51 40 124 165 113 193 -3 8
-2 12 3 9 5 -3 11 1 15 9 3 8 1 17 -4 20 -4 3 -11 -1 -13 -7 -4 -10 -6 -10 -6
-1 -1 7 5 17 12 24 8 7 11 32 9 71 -3 38 2 76 12 102 22 59 65 246 54 240 -4
-3 -9 7 -9 23 -1 22 -3 23 -6 7 -3 -16 -10 -20 -23 -17 -11 3 -16 11 -13 19 3
8 8 12 13 9 4 -2 10 31 13 73 3 43 12 92 18 108 7 16 13 31 14 34 8 33 18 49
27 44 5 -3 9 2 8 12 -6 56 15 77 26 27z m-4991 -157 c72 -152 139 -349 186
-546 46 -190 100 -361 139 -440 63 -126 220 -354 274 -399 9 -7 16 -20 16 -28
0 -23 -49 21 -137 122 -92 107 -137 173 -185 275 -60 126 -148 401 -148 461 0
46 -84 315 -110 354 -4 6 -10 22 -13 36 -10 40 -77 182 -83 176 -6 -5 -21 -72
-57 -249 -6 -32 -16 -58 -22 -58 -5 0 -4 -4 4 -9 12 -8 13 -12 1 -26 -10 -12
-10 -19 -2 -27 7 -7 12 -21 12 -31 0 -16 -3 -17 -15 -7 -13 10 -15 9 -15 -9 0
-11 -5 -21 -11 -21 -5 0 -9 -8 -8 -17 3 -33 -1 -54 -9 -49 -5 3 -9 0 -9 -7 -1
-7 -6 -37 -12 -67 -13 -64 -41 -318 -40 -364 0 -27 2 -28 10 -11 7 15 8 9 4
-20 -3 -22 -9 -103 -14 -180 -10 -164 -19 -214 -39 -234 -13 -13 -14 20 -9
265 6 349 29 519 111 812 30 108 64 244 76 301 12 58 23 108 26 113 11 17 28
-8 79 -116z m3341 19 c9 -49 38 -180 65 -291 68 -285 92 -484 93 -764 1 -218
-15 -400 -34 -400 -11 0 -10 -30 -14 385 -3 332 -8 419 -27 456 -5 9 -9 46
-11 83 -1 36 -6 66 -10 66 -4 0 -8 9 -8 19 0 11 -5 23 -10 26 -6 4 -8 16 -4
27 3 11 2 23 -3 27 -15 11 -43 142 -53 250 -5 57 -12 106 -14 109 -9 9 -24 -9
-47 -58 -13 -27 -27 -50 -31 -50 -5 0 -8 -7 -8 -14 0 -8 -15 -46 -34 -83 -53
-105 -122 -320 -197 -607 -27 -105 -66 -202 -101 -251 -15 -22 -48 -69 -72
-105 -68 -101 -201 -256 -225 -263 -12 -3 -21 -2 -21 2 0 3 28 40 63 81 77 93
194 265 234 345 33 65 98 252 133 380 64 235 147 456 232 615 80 149 79 149
104 15z m-1677 42 c35 -44 181 -345 195 -407 4 -14 2 -32 -4 -40 -11 -16 -11
-17 -56 46 -11 15 -25 32 -32 40 -7 8 -10 14 -5 14 4 0 2 4 -5 9 -8 5 -15 20
-15 34 -1 14 -6 25 -12 24 -5 -1 -9 4 -7 11 4 21 -20 92 -29 86 -5 -3 -9 5 -9
18 0 14 -6 33 -14 43 -12 17 -14 13 -20 -38 -8 -58 -20 -73 -31 -37 -12 39
-28 25 -78 -71 -58 -111 -107 -194 -107 -185 0 6 -7 1 -15 -10 -13 -18 -14
-17 -15 17 0 60 208 459 240 459 4 0 13 -6 19 -13z m2862 -172 c-28 -58 -51
-108 -51 -111 0 -10 -90 -139 -98 -139 -4 0 -6 -4 -4 -8 1 -5 -2 -6 -8 -2 -12
7 -13 5 120 238 47 81 86 143 88 137 2 -5 -19 -57 -47 -115z m-5967 100 c3 -8
1 -15 -4 -15 -6 0 -10 7 -10 15 0 8 2 15 4 15 2 0 6 -7 10 -15z m121 -200 c52
-87 92 -162 89 -166 -3 -5 -1 -9 3 -9 5 0 14 -10 21 -22 16 -29 -27 19 -85 93
-61 77 -178 318 -133 273 6 -6 53 -82 105 -169z m6192 8 c1 -22 -1 -24 -8 -10
-6 9 -7 22 -4 27 9 14 10 13 12 -17z m-3133 -233 c64 -122 91 -185 105 -245 7
-27 5 -30 -16 -31 -12 -1 -24 2 -24 7 -6 38 -21 72 -45 96 -13 13 -24 28 -24
32 0 5 -8 26 -17 47 -9 22 -16 42 -15 47 1 4 -9 39 -23 79 -25 73 -33 120 -16
103 5 -6 39 -66 75 -135z m-129 83 c-6 -33 -35 -96 -127 -273 -13 -25 -26 -47
-29 -50 -3 -3 -15 -21 -25 -40 -17 -32 -19 -33 -22 -12 -6 42 33 128 169 369
30 53 43 55 34 6z m-1642 -33 c4 -33 18 -100 31 -148 13 -48 24 -105 25 -127
l0 -40 -19 23 c-17 21 -19 21 -29 5 -6 -10 -11 -12 -11 -5 0 6 -4 12 -10 12
-5 0 -10 -17 -11 -37 -1 -82 -16 4 -23 131 -5 104 -3 139 10 187 9 32 20 59
24 59 4 0 10 -27 13 -60z m3327 18 c14 -47 14 -228 1 -318 -5 -30 -9 -43 -10
-29 -1 35 -11 42 -27 21 -12 -16 -13 -15 -14 6 0 13 -4 20 -10 17 -6 -4 -10 8
-11 27 0 18 -3 27 -6 20 -2 -6 -9 -10 -14 -6 -5 3 -5 12 0 22 12 23 61 233 61
260 0 36 16 25 30 -20z m-2265 -111 c54 -53 58 -71 13 -63 -22 4 -27 3 -14 -2
28 -12 3 -25 -32 -18 -15 4 -54 -1 -86 -9 -32 -9 -61 -13 -63 -11 -3 3 16 34
41 70 66 92 77 94 141 33z m1283 35 c14 -10 102 -132 102 -143 0 -5 -21 -1
-47 7 -27 9 -64 19 -83 23 -26 5 -34 11 -32 24 2 13 -5 17 -33 17 -43 0 -39 9
17 51 43 30 55 34 76 21z m-4311 -129 c-3 -10 -5 -4 -5 12 0 17 2 24 5 18 2
-7 2 -21 0 -30z m6668 -23 c3 -5 -1 -10 -10 -10 -9 0 -13 5 -10 10 3 6 8 10
10 10 2 0 7 -4 10 -10z m-2292 -19 c69 -22 127 -61 149 -99 17 -29 17 -29 -5
-26 -12 1 -44 9 -72 18 -27 8 -60 13 -72 10 -13 -4 -30 -1 -38 6 -8 6 -19 9
-24 6 -11 -7 -41 31 -41 51 0 8 13 13 33 14 l32 1 -32 9 c-18 5 -35 14 -38 19
-10 16 47 12 108 -9z m-1468 -7 c-19 -15 -18 -15 18 -9 51 10 73 -7 51 -41
-12 -18 -24 -23 -50 -22 -22 1 -46 -7 -64 -21 -21 -15 -35 -19 -46 -13 -10 6
-32 5 -56 -1 -45 -11 -54 -7 -39 22 23 43 128 100 186 100 l20 0 -20 -15z
m3743 -21 c4 2 15 -4 25 -15 9 -10 13 -18 8 -18 -5 0 -12 -11 -15 -25 -4 -14
-11 -23 -16 -20 -5 3 -11 -4 -15 -15 -4 -12 -15 -20 -29 -20 -19 0 -21 -4 -18
-33 2 -22 -2 -38 -12 -46 -9 -8 -16 -11 -16 -8 0 13 -46 -41 -58 -67 -12 -27
-76 -92 -84 -85 -1 2 -41 -37 -88 -85 -255 -266 -467 -447 -505 -432 -11 4 5
24 62 73 203 177 588 584 667 705 10 15 22 25 27 22 5 -3 9 -2 8 3 -3 20 2 34
11 28 5 -3 7 0 4 8 -3 8 2 17 10 20 9 4 17 14 17 24 1 17 2 17 6 0 2 -9 8 -16
11 -14z m-6111 -95 c172 -215 606 -652 747 -754 24 -17 26 -22 13 -27 -10 -4
-33 6 -59 26 -24 18 -54 39 -68 48 -24 16 -79 64 -230 199 -41 38 -88 80 -105
95 -16 15 -24 23 -16 19 9 -5 12 -3 7 4 -4 7 -11 12 -16 12 -5 0 -39 31 -77
68 -80 81 -213 229 -195 218 17 -10 15 -3 -9 38 -13 22 -26 33 -32 29 -7 -4
-6 1 2 11 12 15 12 17 0 14 -9 -2 -14 6 -14 22 0 14 -4 28 -10 32 -7 5 -6 8 1
8 6 0 33 -28 61 -62z m6540 -155 c-3 -10 -5 -4 -5 12 0 17 2 24 5 18 2 -7 2
-21 0 -30z m-3873 13 c-27 -19 -124 -56 -146 -56 -10 0 -18 4 -18 10 0 15 34
29 102 44 83 18 86 18 62 2z m935 -26 c49 -21 59 -40 22 -40 -20 0 -141 57
-141 66 0 11 65 -3 119 -26z m591 20 c11 -7 3 -10 -28 -10 -26 0 -41 4 -37 10
8 13 45 13 65 0z m2347 -142 c-2 -18 -4 -4 -4 32 0 36 2 50 4 33 2 -18 2 -48
0 -65z m-3409 -30 c43 -118 108 -338 127 -428 8 -41 30 -127 49 -190 18 -63
41 -156 51 -206 16 -78 17 -96 5 -123 -23 -57 -42 -36 -56 59 -16 106 -29 144
-49 136 -8 -3 -15 -1 -15 5 0 6 -5 7 -10 4 -6 -4 -7 -11 -4 -17 10 -15 -30 8
-46 26 -11 14 -9 16 9 16 12 0 19 4 16 10 -3 5 -17 9 -30 8 -21 -2 -25 -9 -31
-46 -14 -91 -23 -18 -26 210 -2 164 -7 241 -15 249 -23 23 -35 -64 -40 -295
-5 -204 -7 -226 -20 -203 -7 15 -18 27 -23 27 -6 0 -10 9 -10 19 0 27 -40 39
-55 17 -7 -8 -15 -13 -18 -9 -4 3 -7 -6 -7 -20 0 -17 -5 -27 -15 -27 -19 0
-44 -87 -47 -163 -2 -58 -2 -58 -21 -35 -35 45 -38 66 -22 162 9 50 32 138 51
194 20 57 40 136 45 174 10 79 63 256 115 386 53 131 63 138 92 60z m-1614 -8
c14 -22 23 -40 19 -40 -5 0 0 -5 10 -11 9 -5 17 -17 17 -24 0 -8 5 -15 11 -15
6 0 8 -9 4 -21 -5 -15 -3 -20 6 -17 8 3 21 -5 30 -16 14 -17 14 -22 2 -34 -12
-12 -12 -17 1 -31 8 -9 28 -31 44 -48 16 -18 31 -31 34 -28 2 3 1 -19 -2 -48
-5 -35 -3 -58 6 -72 12 -20 9 -75 -5 -75 -4 0 -20 13 -36 30 -15 16 -31 27
-36 25 -8 -6 -49 56 -49 74 0 7 -9 21 -20 33 l-20 22 -11 -34 -12 -33 -24 47
c-21 42 -24 74 -4 62 9 -6 -7 91 -19 114 -9 19 -6 125 4 158 10 31 19 28 50
-18z m3120 -12 c7 -66 3 -147 -6 -142 -4 3 -10 -8 -14 -23 -11 -52 -17 -68
-37 -111 -15 -34 -22 -40 -33 -31 -11 9 -14 8 -14 -4 0 -8 -7 -17 -15 -21 -8
-3 -15 -12 -15 -19 0 -16 -34 -50 -42 -41 -4 3 -9 -4 -13 -15 -7 -24 -40 -45
-56 -36 -6 4 -7 24 -4 50 5 27 3 45 -4 50 -8 4 -5 15 9 35 11 15 20 34 20 42
0 11 2 11 9 0 6 -10 10 -8 14 8 4 14 10 19 18 14 9 -5 10 -2 6 9 -3 10 -3 17
1 17 15 0 30 48 19 59 -8 8 -7 11 2 11 7 0 10 4 7 8 -3 4 11 25 30 46 19 20
34 44 34 51 0 8 12 22 28 32 34 22 42 33 35 50 -3 7 0 13 5 13 6 0 13 -24 16
-52z m-2236 9 c29 -7 53 -16 53 -20 1 -20 -9 -26 -48 -29 -40 -3 -49 -12 -15
-14 10 -1 37 -2 62 -4 l45 -2 -35 -9 c-51 -13 -242 -10 -256 4 -4 4 0 7 9 7
10 0 17 5 17 11 0 7 -7 8 -17 4 -59 -25 -100 -36 -126 -33 -25 3 -15 9 64 43
144 61 155 63 247 42z m375 -4 c-7 -3 -13 -9 -13 -14 0 -37 -132 -179 -167
-179 -36 0 -18 24 71 95 41 33 75 64 76 69 0 15 33 47 39 40 3 -4 0 -9 -6 -11z
m1151 -23 c92 -45 135 -79 81 -66 -16 4 -39 8 -50 9 -11 0 -22 4 -25 8 -10 13
-50 21 -50 9 0 -7 -7 -9 -16 -6 -8 3 -13 2 -9 -3 5 -10 -88 -18 -143 -13 -18
2 -30 8 -27 13 4 5 1 9 -4 9 -15 0 -14 37 0 46 15 9 108 31 136 33 12 1 60
-17 107 -39z m-580 -159 c91 -133 116 -177 116 -203 0 -48 -15 -67 -24 -32 -7
28 -40 81 -62 99 -15 12 -74 121 -74 136 0 6 -7 17 -15 25 -8 9 -15 26 -15 39
0 13 -7 30 -15 38 -8 8 -11 17 -8 21 4 3 2 6 -4 6 -5 0 -15 12 -21 26 -24 51
8 11 122 -155z m171 47 c28 -26 43 -48 35 -48 -28 1 -95 55 -127 104 -46 67
-42 92 5 36 20 -24 60 -66 87 -92z m-572 57 c-27 -49 -168 -255 -175 -255 -4
0 -8 -4 -8 -9 0 -5 -5 -22 -12 -38 -14 -35 -15 -38 -18 -65 -2 -22 -2 -22 -10
2 -21 65 -14 82 102 244 73 104 114 153 119 145 4 -7 5 -18 2 -24z m-593 -49
c0 -19 -7 -26 -30 -31 -19 -4 -37 -2 -46 6 -13 10 -12 14 3 30 10 10 30 18 46
18 22 1 27 -3 27 -23z m1464 -2 c3 -8 2 -12 -4 -9 -6 3 -10 10 -10 16 0 14 7
11 14 -7z m33 10 c-3 -3 -12 -4 -19 -1 -8 3 -5 6 6 6 11 1 17 -2 13 -5z
m-2390 -46 c-3 -8 -6 -5 -6 6 -1 11 2 17 5 13 3 -3 4 -12 1 -19z m-10 -65 c-3
-10 -5 -2 -5 17 0 19 2 27 5 18 2 -10 2 -26 0 -35z m2360 -76 c2 -3 5 -11 7
-19 1 -7 4 -17 8 -23 4 -6 -31 -9 -100 -8 -65 1 -108 6 -110 12 -2 6 -16 11
-30 12 -22 1 -19 4 18 16 82 28 184 33 207 10z m-1268 -6 l55 -18 -73 -6 c-40
-3 -79 -11 -86 -17 -9 -7 -32 -8 -67 -3 -29 4 -59 6 -65 5 -8 -2 -10 3 -6 14
16 43 145 57 242 25z m-810 -88 c1 -7 -3 -13 -9 -13 -5 0 -10 17 -9 38 1 33 2
34 9 12 4 -14 8 -31 9 -37z m2601 53 c0 -3 -4 -8 -10 -11 -5 -3 -10 -1 -10 4
0 6 5 11 10 11 6 0 10 -2 10 -4z m-2413 -132 l52 -34 -16 -39 c-13 -34 -19
-39 -34 -31 -12 7 -20 7 -24 0 -3 -5 -10 -10 -15 -10 -12 0 -70 63 -70 76 0 6
-9 23 -20 37 -22 28 -28 103 -8 109 6 2 28 -14 47 -36 20 -21 59 -54 88 -72z
m-448 -89 c4 -71 5 -133 2 -137 -4 -4 -16 -5 -29 -2 -21 6 -22 11 -22 104 0
53 3 125 6 159 7 61 7 61 21 34 10 -18 18 -76 22 -158z m922 161 l33 -14 -54
-27 c-38 -19 -55 -24 -60 -15 -12 19 0 47 23 58 12 6 23 11 23 11 1 1 17 -5
35 -13z m1412 7 c2 -5 8 -26 11 -47 7 -36 6 -38 -9 -22 -9 9 -23 16 -31 16 -9
0 -22 7 -31 16 -14 14 -14 16 3 29 21 16 50 19 57 8z m836 -310 c-7 -7 -18
-13 -26 -11 -10 2 -14 30 -17 113 -2 61 -2 104 1 96 6 -16 33 53 33 85 0 11 3
24 8 28 13 13 14 -295 1 -311z m-359 283 c0 -6 -11 -24 -25 -39 -14 -15 -23
-27 -19 -27 4 0 -1 -9 -11 -20 -10 -11 -23 -20 -29 -20 -6 0 -12 -12 -12 -28
-2 -43 -7 -55 -31 -74 -13 -12 -19 -25 -16 -38 3 -12 0 -20 -6 -20 -9 0 -11
22 -9 73 1 39 -1 79 -5 88 -6 11 5 23 40 46 26 17 59 43 72 56 23 25 51 27 51
3z m990 -36 c0 -6 10 -14 23 -19 18 -7 4 -14 -83 -41 -89 -28 -246 -54 -230
-37 3 2 48 19 100 37 52 18 111 41 130 51 40 21 60 24 60 9z m-4560 -8 c0 -10
-36 -9 -46 1 -4 4 5 7 19 7 15 0 27 -4 27 -8z m138 -11 c20 -10 82 -33 136
-52 110 -38 102 -48 -20 -26 -145 27 -286 77 -217 77 12 0 25 5 28 10 9 15 31
12 73 -9z m5442 -64 c0 -48 -153 -404 -216 -504 -41 -64 -145 -193 -156 -193
-13 0 10 38 72 121 66 86 132 199 150 255 7 22 17 45 23 52 5 7 7 15 3 19 -3
3 -6 0 -6 -7 0 -7 -3 -11 -6 -7 -8 8 -74 -53 -71 -65 1 -6 -6 -12 -17 -13 -10
-2 -24 -9 -30 -16 -8 -9 -8 -10 3 -4 10 5 12 4 7 -4 -4 -6 -11 -9 -15 -6 -5 2
-16 -4 -26 -15 -27 -29 -98 -62 -126 -58 -37 5 -38 43 0 62 16 9 37 26 45 38
9 12 16 19 16 15 0 -12 20 11 52 58 16 22 71 84 123 138 52 54 95 102 95 106
0 5 9 11 20 14 11 3 20 12 20 21 0 9 8 16 20 16 14 0 20 -7 20 -23z m-6443
-48 c31 -19 48 -39 21 -23 -7 4 -2 -5 11 -19 13 -15 27 -24 31 -22 4 3 20 -12
36 -33 15 -20 41 -51 59 -68 17 -16 37 -45 44 -62 15 -35 64 -82 86 -82 8 0
27 -14 44 -32 35 -38 27 -58 -24 -58 -41 0 -97 19 -89 31 3 5 -1 9 -9 9 -8 0
-17 7 -21 15 -3 8 -9 14 -14 13 -4 -2 -30 22 -57 52 -77 87 -84 94 -91 88 -11
-12 168 -338 186 -338 4 0 17 -15 28 -33 11 -19 28 -47 38 -63 17 -28 17 -28
-20 6 -88 81 -198 270 -271 463 -13 34 -35 92 -48 129 l-26 67 27 -10 c15 -6
41 -19 59 -30z m2567 -10 c25 -7 35 -14 27 -19 -8 -4 -2 -9 18 -13 64 -13 27
-22 -92 -22 -93 0 -132 -4 -165 -18 -50 -20 -52 -20 -52 -6 0 16 48 58 85 75
36 16 126 18 179 3z m1467 -17 c69 -36 71 -56 4 -60 -27 -2 -54 -7 -59 -12
-13 -13 37 -30 86 -30 28 0 61 -11 105 -35 74 -41 94 -43 134 -14 37 26 48 22
64 -24 15 -43 4 -65 -35 -71 -77 -13 -110 -14 -110 -6 0 6 -5 10 -11 10 -5 0
-8 -4 -4 -9 6 -10 -41 -5 -58 6 -5 3 -59 5 -119 4 -107 -2 -109 -1 -106 20 2
17 16 27 58 41 101 34 88 48 -26 27 -51 -9 -63 -9 -92 7 -25 14 -31 22 -26 38
9 28 19 33 74 41 96 13 85 43 -11 32 -31 -4 -47 -2 -44 3 4 6 1 10 -5 10 -22
0 -5 34 20 41 55 15 108 9 161 -19z m-2846 -52 c-3 -6 1 -13 9 -16 23 -9 20
-23 -4 -17 -29 8 -25 -6 5 -17 21 -8 25 -15 23 -42 -3 -26 3 -35 29 -52 18
-12 32 -24 33 -28 0 -13 34 -48 46 -48 16 0 65 -40 60 -49 -3 -4 10 -15 28
-23 19 -9 40 -31 49 -50 9 -19 25 -42 37 -53 11 -10 20 -23 20 -30 0 -7 14
-31 30 -53 32 -45 37 -58 18 -46 -7 5 -19 9 -28 10 -8 1 -39 12 -67 25 -55 24
-77 21 -49 -6 9 -9 16 -14 16 -11 0 3 27 -10 59 -29 33 -20 73 -35 90 -35 21
0 31 -5 31 -15 0 -9 7 -18 15 -21 8 -4 15 -12 15 -20 0 -7 8 -19 18 -26 18
-14 29 -94 12 -83 -6 4 -10 -3 -10 -14 0 -19 -1 -19 -57 -2 -32 10 -93 27
-137 37 -43 10 -84 23 -90 29 -6 7 -23 15 -38 18 -27 7 -63 36 -54 44 2 3 14
-1 26 -7 40 -21 29 -5 -20 30 -27 19 -91 65 -142 101 -114 81 -171 105 -219
91 -19 -5 -80 -7 -135 -4 -85 4 -107 1 -145 -15 -97 -43 -123 -37 -76 19 23
28 106 58 160 58 16 0 52 -8 79 -17 48 -18 50 -17 64 1 21 29 18 34 -23 42
-50 9 -77 9 -145 0 -68 -10 -73 0 -33 64 20 32 30 39 57 38 78 0 127 10 188
40 42 21 81 32 110 33 l45 1 -30 13 c-45 21 -83 18 -183 -15 -110 -36 -126
-37 -87 -4 73 61 183 99 279 95 46 -2 66 1 61 8 -3 6 -27 11 -53 11 l-47 1 28
15 c25 13 87 30 125 33 7 1 10 -4 7 -9z m1330 -19 c28 -10 59 -21 70 -25 17
-7 18 -6 5 4 -13 10 -12 11 3 6 10 -3 24 -6 30 -6 7 0 6 -4 -3 -10 -10 -6 -11
-10 -3 -10 18 0 -5 -48 -27 -55 -10 -3 -44 1 -76 10 -62 16 -96 18 -131 9 -38
-10 -26 -21 30 -28 55 -7 117 -24 117 -32 0 -21 -37 -29 -140 -32 -63 -1 -127
-7 -142 -13 -14 -6 -37 -9 -50 -7 -22 3 -22 4 7 20 l30 17 -34 1 c-45 0 -101
21 -101 37 0 7 6 10 14 7 8 -3 46 10 83 29 38 19 85 38 104 41 46 10 91 28
107 43 18 17 47 16 107 -6z m2842 -15 c4 -3 -12 -6 -35 -6 -29 0 -42 4 -42 14
0 11 8 12 36 6 19 -5 38 -11 41 -14z m-3229 -10 c-2 -1 -12 -8 -22 -16 -18
-14 -19 -14 -7 8 7 12 17 20 22 16 6 -3 9 -7 7 -8z m3375 -51 c32 -16 73 -42
90 -57 l32 -27 -40 11 c-22 5 -49 15 -59 20 -37 20 -156 27 -195 13 -41 -15
-39 -16 44 -18 50 -2 70 -8 113 -36 46 -29 62 -34 124 -35 l72 -2 17 -40 c10
-21 18 -43 18 -48 1 -5 -25 -6 -56 -3 -77 7 -143 -9 -143 -34 0 -22 21 -24 84
-7 61 16 149 -4 188 -42 37 -38 38 -63 1 -54 -15 4 -42 16 -61 27 -30 18 -47
19 -171 15 l-138 -4 -89 -43 c-86 -41 -121 -66 -213 -150 -40 -37 -42 -41 -21
-41 23 0 23 -1 5 -14 -11 -8 -29 -12 -40 -10 -27 5 -55 -5 -52 -18 1 -6 -32
-19 -73 -28 -41 -9 -92 -22 -113 -28 -31 -9 -39 -8 -44 4 -3 7 -9 11 -14 8
-15 -9 -10 13 6 26 9 7 14 19 11 26 -3 7 0 16 6 20 7 5 8 2 3 -6 -5 -8 -4 -11
3 -6 6 3 13 19 17 36 4 19 13 30 28 32 12 2 21 8 20 14 -1 5 7 10 17 11 10 1
26 8 37 17 10 8 45 36 77 61 61 46 55 61 -10 25 -20 -12 -39 -19 -42 -15 -3 3
0 5 6 5 7 0 12 5 12 10 0 7 -6 7 -20 0 -13 -7 -20 -7 -20 -1 0 11 47 83 59 91
5 3 16 20 26 39 9 18 55 73 102 122 53 55 83 94 82 106 -2 10 2 27 8 38 11 19
21 21 130 20 111 0 121 -2 176 -30z m-2583 -59 c0 -7 -27 -44 -61 -82 -34 -38
-65 -78 -69 -89 -6 -16 -8 -12 -8 15 0 30 11 46 66 103 37 37 68 67 69 67 2 0
3 -6 3 -14z m675 -20 c105 -115 105 -115 99 -145 -8 -37 23 -61 173 -133 l112
-54 -47 -13 c-26 -7 -66 -14 -90 -15 -23 -1 -49 -9 -58 -17 -14 -14 -4 -17
103 -23 71 -4 132 -2 153 4 51 15 80 12 87 -7 4 -9 1 -19 -5 -21 -7 -2 -12
-10 -12 -18 0 -8 -9 -24 -20 -36 -21 -23 -22 -23 -159 7 -41 9 -86 15 -100 13
-39 -4 108 -75 194 -93 65 -13 94 -25 63 -25 -9 0 -18 -6 -21 -14 -8 -19 -70
-14 -179 14 -67 18 -98 21 -165 16 -45 -4 -84 -3 -87 2 -5 8 66 62 82 62 4 0
18 9 32 20 l25 20 -35 -6 c-19 -4 -41 -11 -47 -17 -9 -6 -13 -6 -13 2 0 7 -4
9 -10 6 -5 -3 -10 1 -10 10 0 8 -6 18 -14 21 -26 10 -26 44 1 67 13 12 28 22
31 23 4 0 19 6 33 12 15 6 59 12 98 13 39 2 67 6 63 10 -10 9 -99 36 -143 43
-54 9 -73 36 -70 97 2 43 -1 53 -26 77 -36 33 -68 80 -77 110 -10 31 3 27 39
-12z m-1137 -83 l37 -16 -49 -9 c-60 -11 -178 -7 -183 7 -2 6 9 18 24 28 33
21 112 17 171 -10z m1682 8 l31 -18 -43 -11 c-74 -18 -122 -23 -150 -15 -40
12 -36 26 13 45 58 22 112 22 149 -1z m-32 -58 c-10 -2 -26 -2 -35 0 -10 3 -2
5 17 5 19 0 27 -2 18 -5z m-2288 -121 c52 -26 113 -55 135 -64 51 -22 129 -93
120 -109 -5 -7 -10 -7 -14 -2 -8 13 -46 33 -61 33 -7 0 -9 -8 -5 -21 5 -16 4
-19 -5 -14 -9 5 -11 4 -6 -4 5 -7 5 -23 2 -37 -5 -19 -13 -24 -37 -24 -23 0
-47 14 -97 58 -37 33 -88 73 -114 91 -42 28 -61 51 -42 51 3 0 38 -18 79 -40
40 -22 85 -44 101 -50 l29 -11 -34 35 c-18 19 -61 49 -95 67 -77 40 -116 76
-116 107 l0 24 33 -22 c17 -12 75 -42 127 -68z m1000 48 c0 -25 -7 -33 -41
-50 -23 -12 -47 -19 -55 -16 -7 3 -16 1 -19 -4 -4 -6 -14 -10 -23 -10 -9 0
-35 -9 -57 -20 l-40 -20 69 5 c56 5 76 2 111 -15 58 -28 79 -53 71 -85 -4 -17
-13 -25 -27 -25 -18 0 -19 -2 -9 -15 14 -17 9 -18 -42 -6 -49 12 -41 0 34 -45
58 -36 60 -38 37 -47 -13 -5 -48 -6 -77 -4 -41 4 -54 2 -59 -9 -3 -9 -9 -11
-17 -5 -7 5 -31 5 -61 -1 -27 -5 -89 -12 -136 -15 -75 -4 -87 -3 -93 12 -3 10
-5 19 -4 20 2 0 34 6 72 13 71 11 221 76 212 91 -6 9 -122 -11 -203 -34 -28
-8 -61 -15 -73 -15 -21 0 -22 4 -17 40 3 22 2 38 -1 36 -4 -2 -8 7 -8 20 -2
27 22 32 57 13 13 -6 66 -8 155 -3 117 6 133 9 121 21 -8 8 -34 17 -58 19 -69
7 -149 26 -149 36 0 4 7 8 16 8 9 0 33 9 53 20 20 11 61 29 92 40 32 11 74 34
95 50 52 39 74 39 74 0z m1964 8 c-10 -34 -22 -46 -99 -99 -136 -93 -149 -117
-34 -58 131 66 141 54 27 -33 -181 -138 -188 -140 -188 -74 0 24 -3 52 -7 62
-4 12 -3 15 5 10 7 -4 12 -2 12 3 0 6 -2 11 -4 11 -8 0 -52 -25 -83 -47 -57
-41 -59 -23 -3 29 37 34 88 67 158 99 56 27 126 65 155 84 61 41 71 43 61 13z
m-3916 -127 c41 -17 107 -35 153 -40 86 -11 104 -18 133 -50 19 -21 19 -21
-12 -21 -43 0 -40 -15 8 -45 75 -47 155 -77 243 -91 72 -11 95 -19 128 -44 49
-39 50 -46 2 -20 -20 11 -39 17 -42 14 -3 -3 3 -10 14 -16 11 -6 37 -29 59
-50 21 -21 42 -38 45 -38 4 0 32 -18 62 -40 30 -22 64 -48 77 -57 17 -13 20
-18 10 -25 -10 -7 -9 -8 2 -5 8 2 27 -4 42 -15 16 -11 33 -16 39 -13 6 4 25 0
42 -8 18 -9 67 -23 109 -32 64 -14 89 -25 150 -69 102 -75 204 -216 156 -216
-7 0 -31 19 -54 41 -23 23 -47 38 -53 35 -17 -11 -14 -19 25 -70 39 -49 39
-79 1 -35 -12 14 -33 34 -46 44 -27 22 -26 20 33 -70 22 -32 40 -72 40 -87 1
-15 -1 -28 -2 -28 -2 0 -24 18 -49 40 -25 22 -50 40 -55 40 -17 0 12 -38 52
-70 42 -33 75 -84 65 -100 -6 -10 -44 1 -115 32 -73 32 -84 38 -110 59 -19 15
-20 18 -4 10 16 -8 23 -6 32 10 10 16 8 23 -10 45 -13 14 -26 44 -30 67 -23
130 -23 120 3 111 68 -22 87 0 29 34 -22 12 -40 27 -40 33 0 6 -4 7 -10 4 -5
-3 -10 -2 -10 3 0 6 -12 13 -27 17 -15 3 -22 9 -16 13 7 5 7 11 -2 19 -10 9
-15 9 -17 1 -3 -8 -10 -8 -25 1 -30 15 -54 14 -47 -3 3 -7 -3 -16 -13 -20 -12
-5 -23 1 -36 18 -10 15 -27 26 -37 26 -9 0 -25 10 -34 23 -9 12 -14 16 -11 10
3 -7 1 -13 -4 -13 -6 0 -11 -11 -11 -24 0 -39 -19 -41 -69 -6 -119 85 -162
111 -172 108 -12 -4 203 -180 232 -191 9 -3 22 0 29 6 10 9 11 9 6 0 -3 -6 -2
-14 4 -18 13 -8 13 -45 0 -45 -5 0 -10 -7 -10 -16 0 -27 -88 -11 -146 25 -26
17 -52 31 -57 31 -30 0 83 -85 127 -96 15 -3 30 -13 33 -20 3 -9 20 -14 44
-14 46 0 52 -19 12 -37 -30 -14 -53 -16 -78 -7 -13 6 -14 9 -3 16 8 5 -4 6
-29 2 -24 -4 -49 -2 -55 3 -7 5 -38 17 -69 27 -40 12 -59 23 -62 38 -3 11 -10
17 -17 13 -8 -5 -8 -10 0 -20 9 -11 7 -12 -9 -8 -29 8 -48 32 -32 42 8 6 2 16
-23 34 -19 15 -39 27 -45 27 -5 0 -36 22 -68 48 -32 27 -78 60 -102 75 -26 15
-61 49 -81 79 -48 69 -158 153 -221 168 -27 7 -61 21 -75 33 l-26 20 53 17
c30 9 69 24 87 34 37 19 30 22 167 -58 79 -45 105 -55 105 -37 0 24 -216 161
-254 161 -10 0 -31 -11 -48 -25 -35 -30 -67 -32 -99 -6 -24 19 -24 19 -44 0
-18 -16 -26 -17 -58 -8 -72 19 -69 6 17 -81 82 -85 84 -87 80 -130 -2 -28 1
-47 9 -52 9 -6 9 -8 -1 -8 -7 0 -10 -4 -7 -10 13 -21 -12 -8 -48 25 -21 19
-40 35 -42 35 -9 0 16 -53 40 -84 14 -18 22 -36 18 -39 -3 -4 1 -7 10 -7 15 0
18 -5 17 -25 -1 -14 115 -94 142 -99 32 -6 158 -77 155 -89 -1 -7 8 -11 23
-10 14 1 19 -1 12 -4 -10 -4 -9 -8 5 -18 15 -11 8 -11 -42 -1 -66 14 -93 26
-144 65 -19 14 -53 37 -77 51 -24 14 -84 53 -132 87 -94 66 -102 78 -102 166
0 30 -16 69 -86 211 -46 94 -51 122 -33 175 9 25 17 31 39 31 26 0 124 -46
187 -87 23 -15 25 -15 56 14 27 26 35 29 55 20 23 -11 38 -5 28 11 -3 5 -43
20 -88 32 -46 12 -96 29 -112 37 -21 11 -44 13 -83 8 -53 -6 -54 -6 -41 14 23
37 159 73 248 66 25 -3 78 -18 118 -34z m4935 10 c28 -10 57 -28 66 -41 l16
-23 -42 6 c-30 5 -61 0 -117 -18 -42 -14 -81 -25 -85 -25 -5 0 -31 -9 -57 -21
-37 -15 -45 -22 -34 -29 10 -6 20 -4 32 7 16 14 19 13 45 -14 l28 -28 85 42
c47 24 100 46 117 49 31 6 34 4 48 -29 8 -20 15 -50 15 -67 0 -38 -39 -132
-91 -222 -26 -45 -44 -91 -52 -135 l-12 -68 -75 -52 c-121 -85 -149 -103 -158
-103 -5 0 -27 -14 -48 -31 -40 -33 -99 -62 -146 -73 l-28 -6 17 35 c12 25 28
39 60 51 23 9 57 27 75 40 17 13 43 24 56 24 13 0 21 4 17 9 -3 5 9 17 27 26
18 9 27 10 20 3 -6 -6 -12 -16 -12 -21 0 -17 75 57 75 74 1 9 16 44 34 78 36
69 31 70 -43 12 -42 -34 -54 -34 -36 -2 9 17 8 21 -5 21 -21 0 -19 12 6 44 12
15 19 30 16 33 -4 3 22 29 55 57 108 89 131 113 125 123 -5 8 -23 7 -60 -3
-50 -13 -53 -13 -70 9 l-17 22 -19 -22 c-26 -31 -71 -30 -101 2 -13 14 -33 25
-45 25 -24 0 -170 -84 -225 -130 -61 -50 -25 -44 85 14 110 58 146 66 181 42
12 -8 42 -20 67 -27 71 -17 62 -30 -43 -60 -86 -24 -183 -98 -243 -186 -12
-18 -25 -33 -29 -33 -11 0 -118 -103 -118 -115 0 -11 -47 -50 -61 -50 -5 0
-18 -8 -29 -17 -11 -10 -31 -18 -44 -18 -16 0 -35 -13 -56 -40 -33 -42 -77
-70 -97 -63 -6 2 -14 -1 -18 -6 -3 -6 -19 -11 -36 -11 -16 0 -29 -4 -29 -10 0
-5 -25 -10 -56 -10 -46 0 -55 3 -50 15 3 8 1 15 -4 15 -26 0 -6 19 26 25 52 9
133 49 174 84 46 39 34 49 -16 13 -48 -35 -78 -43 -124 -34 -28 6 -35 13 -41
40 -3 17 -3 29 2 26 13 -7 45 14 149 100 122 101 115 95 108 102 -4 3 -44 -21
-90 -53 -107 -76 -116 -80 -129 -46 -9 24 -11 24 -27 10 -27 -25 -69 -37 -104
-30 -28 6 -30 7 -13 15 14 6 11 7 -10 2 -16 -3 -48 -23 -70 -44 -22 -21 -54
-45 -72 -54 -40 -20 -50 -36 -32 -50 22 -17 27 -115 6 -128 -9 -6 -9 -10 3
-18 11 -7 12 -12 3 -21 -7 -7 -8 -21 -3 -38 7 -26 -10 -58 -24 -44 -3 4 -16
-3 -29 -14 -25 -23 -135 -69 -143 -60 -8 8 34 66 74 101 18 16 37 37 43 48 9
17 8 18 -8 10 -10 -6 -33 -25 -50 -42 -18 -18 -33 -31 -34 -29 -6 31 -6 39 2
39 4 0 6 6 3 13 -2 7 8 31 24 53 66 91 68 101 10 47 -52 -48 -68 -60 -68 -49
0 2 20 30 45 62 25 32 44 62 42 68 -7 22 -28 15 -70 -23 -51 -47 -57 -49 -57
-20 0 30 100 151 165 200 62 47 195 95 207 76 6 -9 8 -9 8 1 0 6 7 12 15 12 9
0 33 11 54 24 21 14 42 22 45 19 3 -4 6 -1 6 6 0 7 5 9 12 5 6 -4 8 -3 4 4 -3
6 17 25 46 44 94 59 193 137 216 168 25 34 25 34 -15 19 -22 -8 -26 -8 -16 2
7 7 25 14 40 15 90 8 261 74 338 130 26 19 8 37 -32 31 -24 -4 -33 -2 -31 6 7
21 90 57 133 57 38 1 69 10 195 59 63 24 145 22 233 -8z m-6133 -409 c30 -22
82 -54 115 -70 74 -37 242 -88 313 -96 29 -3 62 -12 74 -21 l22 -15 -21 0
c-14 0 -28 -10 -36 -26 -11 -21 -23 -27 -56 -30 -23 -2 -58 -11 -79 -19 -20
-9 -64 -20 -97 -24 -58 -8 -62 -7 -115 27 -70 46 -109 67 -138 77 l-24 7 18
-28 c10 -15 44 -44 75 -63 36 -23 71 -56 95 -91 75 -109 271 -324 307 -337 4
-2 15 -11 25 -20 11 -10 28 -26 38 -35 24 -21 44 -45 44 -53 0 -30 -216 161
-342 303 -227 255 -260 295 -311 373 -94 145 -197 354 -197 400 0 7 53 -39
118 -102 64 -64 142 -134 172 -157z m7325 241 c-27 -110 -178 -372 -275 -478
-25 -27 -81 -95 -125 -150 -81 -103 -368 -398 -418 -430 -57 -37 -39 -1 33 63
103 91 225 216 253 256 12 18 41 59 64 89 26 34 40 62 37 71 -6 15 11 22 39
17 5 -1 6 3 3 8 -4 5 3 12 14 16 24 8 92 72 108 102 10 18 0 15 -56 -19 -37
-22 -82 -51 -101 -64 -40 -28 -85 -31 -132 -7 -19 10 -65 19 -104 21 -46 3
-73 9 -78 18 -5 9 -25 14 -52 14 -77 0 -44 49 45 67 275 56 463 157 660 357
41 42 78 76 83 76 5 0 6 -12 2 -27z m-5021 -147 c-3 -8 -13 -17 -22 -21 -13
-5 -13 -2 3 15 21 24 26 25 19 6z m2451 -17 c-7 -20 5 -25 21 -10 5 5 27 13
48 17 l40 7 -37 -45 c-39 -47 -45 -64 -25 -70 6 -2 -12 -14 -41 -26 -30 -12
-50 -26 -46 -32 3 -5 2 -10 -4 -10 -5 0 -16 -3 -24 -6 -21 -8 -26 40 -10 90
10 30 10 41 2 47 -8 4 0 17 22 37 36 32 64 32 54 1z m-2421 -2 c-4 -7 -4 -9 1
-5 4 4 20 1 35 -7 27 -14 28 -14 22 7 l-5 22 28 -22 c37 -29 58 -59 50 -72 -3
-5 1 -22 9 -38 13 -25 10 -46 -10 -70 -6 -9 -154 85 -154 98 0 4 10 6 22 2 21
-5 20 -3 -8 34 -28 36 -29 40 -15 55 18 17 35 14 25 -4z m2936 9 c0 -2 -7 -7
-16 -10 -8 -3 -12 -2 -9 4 6 10 25 14 25 6z m-2174 -95 c16 -5 42 -12 59 -16
27 -6 28 -8 12 -19 -12 -10 -30 -11 -60 -5 -103 20 -101 -1 3 -25 59 -14 66
-14 77 0 10 14 12 13 17 -4 4 -11 6 -36 4 -55 -2 -32 -4 -34 -26 -26 -13 5
-35 9 -50 8 l-27 -1 30 -11 c41 -16 85 -60 85 -85 0 -11 4 -23 9 -27 6 -3 13
-27 17 -53 3 -26 10 -51 14 -57 4 -5 15 -32 26 -60 10 -27 23 -53 28 -57 15
-11 -28 -10 -56 1 -13 4 -36 11 -53 15 l-30 8 24 -26 c14 -14 32 -26 40 -26
14 0 14 -1 1 -10 -10 -6 -11 -10 -2 -10 6 0 12 -5 12 -12 0 -19 32 -48 52 -48
11 0 26 -7 34 -15 14 -13 13 -15 -6 -15 -12 0 -25 -10 -32 -25 -8 -18 -16 -24
-27 -19 -9 4 -33 13 -55 21 -21 7 -51 20 -67 28 -17 9 -57 15 -101 15 -71 0
-74 1 -95 33 -13 18 -23 39 -23 47 0 7 -6 21 -14 29 -7 9 -17 26 -20 37 -6 20
1 23 91 44 75 17 113 21 166 16 41 -4 66 -3 63 3 -12 19 -162 74 -201 73 -62
-1 -89 -6 -97 -17 -4 -5 -15 0 -26 13 -10 12 -23 18 -27 14 -5 -4 -5 -1 -1 5
4 7 3 28 -3 47 -8 32 -7 37 16 52 27 17 76 21 128 10 24 -5 20 -1 -15 16 -25
12 -68 23 -96 26 -50 4 -52 6 -63 42 -6 20 -11 46 -11 57 0 23 48 53 87 54 15
0 37 4 48 9 27 12 105 12 141 1z m1114 -6 c23 -8 58 -15 76 -15 30 0 34 -3 35
-27 3 -72 -21 -106 -82 -114 -47 -7 -125 -36 -117 -44 2 -3 19 -1 36 5 21 6
44 5 65 -2 64 -22 72 -44 35 -101 l-23 -35 -75 5 c-69 5 -82 3 -153 -27 -73
-30 -120 -70 -82 -70 9 0 23 7 31 15 22 22 107 19 211 -7 48 -12 90 -23 93
-25 6 -5 -32 -73 -41 -73 -5 0 -13 -10 -20 -21 -9 -17 -8 -20 3 -13 9 6 9 3
-2 -12 -32 -41 -39 -44 -97 -42 -43 1 -76 -6 -126 -26 -72 -29 -87 -28 -87 7
0 16 3 18 9 9 7 -11 9 -11 13 0 3 7 29 21 57 32 28 10 51 22 51 26 0 8 -88
-12 -108 -24 -6 -3 -13 -2 -16 3 -4 5 -1 13 5 16 5 4 8 13 5 21 -3 7 12 26 36
44 45 32 37 37 -34 21 -31 -7 -42 -5 -59 10 l-22 19 24 28 c27 29 58 105 78
187 7 27 13 50 14 50 1 1 25 11 52 24 l50 22 -45 -4 c-54 -5 -65 5 -66 57 -1
31 1 36 11 23 6 -9 18 -15 26 -13 83 16 139 31 139 38 0 7 -97 2 -126 -7 -12
-3 -41 12 -34 17 3 2 32 11 65 20 78 21 142 22 195 3z m-2810 -185 c0 -5 -2
-10 -4 -10 -3 0 -8 5 -11 10 -3 6 -1 10 4 10 6 0 11 -4 11 -10z m693 -154 c4
-10 1 -13 -8 -9 -8 3 -12 9 -9 14 7 12 11 11 17 -5z m-2258 -246 c39 -24 106
-63 150 -87 l80 -43 -74 7 c-54 4 -72 3 -67 -6 5 -7 -1 -11 -15 -11 -16 0 -20
-5 -16 -20 5 -18 4 -19 -24 -4 -45 23 -206 235 -193 255 3 5 24 -4 47 -20 23
-15 74 -48 112 -71z m2285 85 c11 -13 10 -14 -4 -9 -9 3 -16 10 -16 15 0 13 6
11 20 -6z m5230 1 c0 -8 -38 -61 -84 -119 -82 -101 -140 -156 -153 -143 -4 3
-1 6 7 6 9 0 10 3 1 14 -7 8 -21 12 -33 8 -17 -4 -20 -2 -15 11 5 12 -2 16
-31 16 -20 0 -50 0 -67 1 l-30 1 35 16 c113 53 221 110 287 154 42 27 77 49
79 49 2 0 4 -6 4 -14z m-5180 -30 c0 -2 -7 -7 -16 -10 -8 -3 -12 -2 -9 4 6 10
25 14 25 6z m3136 -80 c7 -19 -78 -178 -89 -167 -4 4 -3 20 3 36 6 15 9 29 8
31 -6 5 -106 -32 -122 -45 -8 -7 -32 -43 -52 -79 -21 -37 -44 -77 -52 -89 -9
-15 -10 -23 -3 -23 6 0 32 27 58 60 25 33 52 60 60 60 16 0 16 -4 3 -52 -8
-28 -28 -50 -84 -95 -124 -99 -219 -162 -248 -165 -10 -1 -30 -3 -45 -4 -16
-1 -59 -7 -98 -13 -74 -11 -130 -13 -106 -4 10 4 8 9 -10 19 l-24 13 26 1 c31
0 82 24 72 33 -6 7 44 56 60 58 4 1 11 2 17 3 5 0 15 7 22 14 6 6 25 12 41 12
15 0 26 4 23 9 -7 11 37 41 59 41 9 0 13 -4 10 -10 -3 -5 -1 -10 4 -10 6 0 11
10 11 23 0 12 12 31 25 42 14 11 47 40 73 65 26 25 71 66 99 92 28 27 72 58
99 69 26 12 68 37 93 55 52 38 59 40 67 20z m-3460 -27 c25 -17 66 -40 92 -51
30 -13 76 -50 127 -102 86 -86 187 -176 200 -176 4 0 16 -11 27 -25 10 -13 22
-24 26 -23 17 3 61 -15 56 -23 -3 -5 -10 -7 -15 -3 -6 3 -5 -3 3 -15 9 -15 23
-21 50 -21 31 0 38 -4 38 -19 0 -15 -9 -20 -47 -23 -35 -4 -51 -1 -61 11 -9
11 -35 16 -89 19 -62 3 -82 8 -104 27 -15 12 -25 26 -21 30 4 5 1 5 -6 1 -7
-5 -27 7 -51 31 -50 49 -96 83 -111 83 -7 0 -10 7 -6 16 3 9 6 30 6 47 l1 32
59 -65 c33 -36 59 -59 60 -52 0 6 -23 52 -51 101 -49 88 -52 90 -105 107 -30
9 -57 21 -60 25 -13 22 -24 6 -18 -26 5 -28 3 -35 -10 -35 -9 0 -16 6 -16 14
0 8 -11 34 -25 57 -29 51 -33 89 -9 89 8 0 35 -14 60 -31z m-416 -9 c0 -16 -5
-52 -11 -81 -9 -42 -13 -49 -21 -35 -9 16 -5 84 8 129 8 28 24 20 24 -13z
m4251 -10 c8 -28 9 -49 2 -72 l-10 -33 -11 40 c-14 49 -16 105 -2 105 5 0 15
-18 21 -40z m523 -81 c1 -40 3 -45 22 -41 16 3 34 -13 79 -73 l59 -77 -17 -30
c-9 -16 -17 -35 -17 -42 0 -21 45 -99 102 -177 47 -66 53 -79 53 -124 0 -54
-25 -179 -57 -285 -29 -98 -166 -329 -227 -384 -42 -38 -24 5 49 119 78 119
117 210 146 340 14 61 23 150 18 172 -5 17 -3 24 3 20 15 -9 -11 61 -31 84 -9
11 -16 22 -16 26 0 10 -34 32 -51 33 -21 0 -29 -20 -29 -78 0 -47 -18 -112
-32 -112 -4 0 -12 -18 -18 -40 -6 -21 -17 -46 -26 -54 -8 -9 -17 -29 -19 -45
-3 -28 -24 -76 -25 -57 0 8 -50 -60 -50 -69 0 -13 -68 -101 -125 -163 -67 -73
-131 -115 -143 -95 -4 6 -17 13 -30 17 -12 4 -20 11 -17 15 2 5 -15 6 -40 4
-24 -3 -52 -3 -61 1 -32 12 82 63 155 69 47 4 69 11 85 27 l21 21 -47 -6 c-54
-8 -121 1 -113 16 4 5 25 9 48 9 55 0 110 16 139 40 l23 19 -71 -6 c-48 -4
-73 -2 -78 6 -6 9 16 16 28 9 2 -2 12 4 22 13 11 9 33 19 49 23 57 13 114 38
120 53 6 16 7 16 -82 -4 -23 -5 -23 -5 -8 33 27 73 83 205 89 211 3 4 6 21 6
40 0 19 7 39 18 48 9 8 33 28 52 44 38 32 35 52 -5 31 -45 -24 -51 0 -16 70
29 58 30 67 25 133 -4 40 -11 83 -17 97 -8 23 -19 125 -18 175 0 10 10 27 23
37 23 17 23 17 37 -15 8 -18 15 -53 15 -78z m-2324 97 c0 -2 -7 -7 -16 -10 -8
-3 -12 -2 -9 4 6 10 25 14 25 6z m-2952 -58 c-3 -15 -1 -25 2 -23 16 10 25
-46 25 -143 0 -97 -1 -104 -24 -121 -21 -16 -23 -23 -17 -61 3 -23 16 -60 27
-82 24 -47 20 -56 -15 -32 -38 24 -44 9 -11 -26 30 -31 55 -39 55 -17 1 17 40
-35 40 -54 0 -8 4 -19 10 -25 5 -5 12 -28 15 -52 2 -24 12 -56 20 -72 9 -17
13 -30 9 -30 -3 0 4 -17 16 -37 13 -21 26 -51 31 -67 8 -26 6 -28 -14 -22 -61
18 -77 18 -77 4 0 -22 21 -38 49 -38 15 0 39 -7 55 -15 15 -8 40 -15 55 -16
14 0 35 -4 46 -9 l20 -9 -20 -1 -20 -1 20 -9 c14 -7 -2 -9 -52 -7 -53 1 -69
-1 -60 -9 22 -20 96 -44 140 -45 23 -1 33 -4 22 -7 l-20 -5 20 -8 c13 -6 -6
-8 -53 -6 l-73 2 26 -22 c15 -14 40 -23 58 -23 49 0 77 -11 77 -29 -1 -20 -23
-51 -38 -51 -6 0 -12 -5 -14 -12 -2 -6 -14 -12 -26 -13 -12 -1 -20 0 -18 2 5
6 -51 63 -61 63 -12 0 -128 117 -127 128 0 4 -14 21 -31 39 -17 17 -44 56 -59
85 -61 113 -89 174 -88 191 0 9 -3 17 -9 17 -5 0 -9 15 -9 34 0 58 -11 98 -26
92 -9 -3 -14 2 -14 14 0 13 -7 20 -20 20 -23 0 -24 4 -10 31 6 10 7 19 2 19
-12 0 -29 -21 -34 -39 -2 -8 -15 -27 -30 -43 -16 -15 -28 -29 -28 -31 0 -2 -4
-27 -10 -56 -12 -66 19 -249 41 -235 5 3 6 -2 3 -11 -7 -18 96 -232 157 -323
22 -35 39 -65 36 -68 -7 -7 -111 118 -141 169 -37 62 -117 245 -132 302 -8 28
-17 91 -20 140 l-6 90 47 68 c96 140 115 202 70 231 -22 14 -23 19 -13 47 6
17 42 62 79 100 45 44 69 76 69 91 0 39 18 54 62 54 16 0 19 -6 16 -28z m402
-333 c37 -104 79 -190 112 -231 51 -63 54 -69 38 -59 -60 33 -85 64 -125 149
-65 137 -84 252 -75 441 2 55 5 39 10 -70 7 -122 12 -152 40 -230z m1905 339
c36 -15 64 -32 62 -38 -2 -6 -26 -10 -58 -10 l-54 2 48 -22 c36 -16 47 -26 45
-41 -2 -10 8 -31 22 -45 l25 -25 -68 -5 c-37 -3 -68 -9 -68 -14 0 -9 117 -80
153 -92 13 -5 28 -7 33 -6 6 1 -1 -7 -15 -18 -20 -16 -34 -19 -67 -15 -23 3
-44 2 -47 -4 -6 -10 52 -31 85 -31 8 0 26 -11 39 -25 13 -14 18 -25 12 -25 -6
0 -9 -6 -6 -13 4 -11 -26 -14 -151 -15 -98 0 -161 -5 -170 -12 -12 -10 -56
-15 -96 -12 -11 1 -19 14 -22 35 -4 17 -9 47 -13 64 -3 18 -3 41 1 50 5 10 7
24 6 31 -1 6 3 12 8 12 6 0 20 8 31 17 22 19 121 53 133 46 12 -7 8 14 -6 25
-7 6 -34 16 -60 23 -26 6 -54 20 -61 30 -7 10 -15 16 -19 13 -3 -3 -11 -3 -17
1 -9 6 -9 9 0 15 8 5 9 13 4 21 -5 8 -7 24 -5 37 1 13 -3 22 -10 22 -27 0 8
19 61 33 89 24 170 21 245 -9z m893 15 c26 -7 52 -16 58 -21 15 -11 24 -56 12
-60 -5 -2 -13 -19 -17 -38 -5 -27 -13 -37 -36 -43 -50 -15 -118 -48 -112 -54
4 -3 41 -17 84 -32 l77 -26 12 -65 c6 -36 14 -73 18 -82 6 -13 4 -18 -7 -18
-8 0 -22 -11 -30 -24 -9 -13 -24 -22 -34 -21 -82 8 -143 19 -143 25 0 4 -51
10 -112 14 -62 4 -115 11 -116 16 -2 6 -9 7 -15 4 -7 -3 0 6 16 20 15 14 44
28 65 32 20 4 48 13 62 21 24 13 22 14 -24 9 -50 -6 -76 4 -76 30 0 8 5 14 10
14 6 0 39 18 72 40 34 22 66 40 71 40 4 0 5 5 2 10 -3 6 -35 10 -71 10 -35 0
-64 4 -64 8 0 15 35 41 76 57 l39 15 -42 -5 c-68 -8 -51 19 32 52 l30 12 -37
-3 c-21 -1 -41 -6 -45 -9 -10 -11 -25 -8 -18 3 3 6 -1 10 -9 10 -22 0 -20 16
2 24 9 3 37 14 62 25 52 23 138 27 208 10z m-795 -6 c-7 -2 -19 -2 -25 0 -7 3
-2 5 12 5 14 0 19 -2 13 -5z m-1749 -129 c9 -8 16 -24 16 -34 0 -22 -26 -50
-45 -50 -8 0 -19 9 -25 19 -29 55 13 106 54 65z m301 5 c11 -16 1 -19 -13 -3
-7 8 -8 14 -3 14 5 0 13 -5 16 -11z m3675 -10 c13 -23 -4 -79 -23 -79 -19 0
-47 33 -47 55 0 44 50 62 70 24z m277 -96 c-9 -177 -68 -357 -126 -387 -41
-22 -48 -20 -23 7 28 30 88 159 106 230 8 32 21 102 28 157 6 55 14 100 16
100 3 0 2 -48 -1 -107z m-654 80 c-9 -22 -35 -53 -46 -53 -4 0 4 16 19 35 29
39 37 44 27 18z m574 -60 c-3 -10 -5 -4 -5 12 0 17 2 24 5 18 2 -7 2 -21 0
-30z m1593 15 c0 -7 -51 -68 -113 -134 -61 -67 -143 -157 -182 -200 -38 -42
-89 -90 -114 -105 -47 -30 -169 -75 -178 -65 -3 3 32 23 77 45 95 47 113 59
106 77 -2 6 6 22 19 34 47 44 120 144 100 136 -11 -5 -28 -11 -37 -13 -10 -3
-16 -8 -14 -12 5 -7 -2 -9 -86 -17 -43 -4 -61 -2 -72 9 -13 13 -12 17 9 33 32
24 32 37 1 23 -19 -9 -32 -8 -63 7 -21 11 -37 25 -35 32 1 8 -12 12 -38 12
-29 0 -42 5 -50 20 -13 24 -60 51 -115 66 l-40 10 32 17 c42 22 64 21 143 -5
99 -32 282 -31 455 5 72 14 141 28 155 30 14 3 28 5 33 6 4 0 7 -5 7 -11z
m-7375 -40 c75 -19 315 -16 391 5 68 19 121 22 143 8 12 -8 9 -11 -13 -17 -20
-5 -24 -9 -14 -15 10 -7 9 -9 -4 -9 -9 0 -18 -4 -20 -9 -1 -5 -14 -11 -28 -13
-30 -4 -44 -19 -27 -30 7 -4 -4 -8 -24 -8 -35 0 -66 -20 -53 -33 9 -9 -42 -20
-94 -21 l-43 -1 26 -21 c21 -17 25 -26 20 -47 -7 -27 -18 -31 -75 -28 -14 1
-42 9 -63 18 -43 18 -58 12 -34 -15 10 -10 17 -22 17 -27 0 -5 10 -19 22 -32
12 -13 17 -23 11 -23 -6 0 2 -13 17 -30 15 -16 32 -30 38 -30 5 0 15 -7 22
-15 7 -8 36 -22 64 -30 49 -15 135 -63 91 -51 -183 47 -245 84 -353 209 -45
51 -111 119 -146 150 -54 47 -126 133 -126 149 0 6 202 -21 255 -34z m5761
-83 c-30 -145 -107 -279 -197 -345 -65 -47 -62 -36 11 39 77 78 146 203 176
319 10 39 20 69 22 67 2 -2 -3 -38 -12 -80z m-3976 -160 c12 -38 24 -72 26
-74 3 -3 18 8 34 24 32 31 42 31 34 -2 -6 -22 -42 -43 -73 -43 -30 0 -128 109
-99 111 10 0 10 2 1 6 -8 3 -11 14 -7 28 3 12 1 26 -5 29 -17 11 -13 24 9 31
11 3 20 11 20 16 0 5 -9 9 -20 9 -11 0 -20 5 -20 10 0 6 9 10 20 10 11 0 20 5
20 11 0 5 5 7 10 4 6 -3 11 4 11 17 1 13 5 -8 9 -47 3 -38 17 -101 30 -140z
m3630 180 c0 -8 8 -21 17 -30 16 -16 16 -18 0 -27 -14 -8 -15 -11 -4 -22 7 -8
22 -16 33 -19 17 -4 17 -5 -4 -12 -23 -8 -23 -8 -2 -22 22 -15 23 -13 -36 -80
-47 -56 -104 -74 -143 -46 -14 11 -34 22 -43 26 -24 9 -23 24 3 38 18 9 24 8
30 -3 21 -38 48 -63 58 -53 16 17 61 184 61 231 0 34 3 42 15 38 8 -4 15 -12
15 -19z m-4194 -202 c74 -225 184 -362 291 -363 7 0 37 -11 68 -25 33 -14 86
-27 131 -31 62 -6 98 -17 83 -28 -2 -1 -53 1 -114 4 -90 5 -119 11 -160 32
-27 14 -68 28 -89 32 -55 10 -148 106 -187 193 -30 66 -56 170 -65 253 -7 60
8 37 42 -67z m1424 42 c-13 -16 -70 -21 -70 -6 0 11 23 18 59 20 20 1 21 -1
11 -14z m3355 -22 c7 -43 -5 -81 -61 -198 -56 -116 -117 -174 -219 -209 -44
-15 -93 -33 -110 -40 -58 -26 -265 -31 -250 -6 2 4 42 11 87 15 46 4 101 13
123 22 22 8 55 16 73 17 18 1 38 8 44 14 7 7 20 12 29 12 31 0 103 72 145 144
23 39 59 115 80 168 21 54 42 98 46 98 3 0 9 -17 13 -37z m355 -27 c0 -2 -8
-10 -17 -17 -16 -13 -17 -12 -4 4 13 16 21 21 21 13z m-3083 -48 c-11 -7 7
-12 40 -11 7 1 10 -3 7 -8 -3 -5 2 -12 10 -15 12 -4 13 -11 6 -24 -7 -13 -32
-20 -104 -30 -127 -17 -118 -35 13 -26 65 4 91 3 81 -4 -11 -7 -12 -10 -2 -10
9 0 11 -7 7 -19 -5 -17 0 -21 40 -26 34 -6 45 -12 45 -25 0 -10 -6 -21 -12
-23 -10 -4 -10 -7 0 -15 9 -6 -6 -14 -48 -25 -75 -21 -70 -37 9 -30 l59 6 7
-32 c4 -18 5 -35 2 -38 -3 -3 -2 -16 3 -29 7 -19 6 -24 -5 -24 -8 0 -15 -7
-15 -16 0 -13 -7 -15 -35 -10 -27 5 -34 4 -29 -7 9 -25 50 -40 88 -33 33 6 36
5 36 -15 0 -31 -38 -69 -69 -69 -27 1 -81 41 -81 60 0 19 -74 101 -86 96 -7
-3 -20 5 -31 17 l-18 22 23 -19 c26 -23 30 -7 4 17 -13 12 -21 14 -29 6 -8 -8
-13 -8 -17 0 -4 6 -2 11 5 11 19 0 -9 28 -45 44 -49 23 -203 29 -167 7 6 -4
-7 -17 -30 -31 -41 -26 -49 -57 -14 -52 14 2 7 -9 -25 -40 -33 -31 -41 -43
-29 -46 15 -3 129 26 172 43 10 4 17 3 17 -4 0 -6 7 -11 17 -11 9 0 13 -3 10
-7 -4 -3 -2 -12 4 -20 9 -10 8 -13 -3 -13 -20 0 -72 -56 -60 -64 6 -3 17 -3
26 0 9 3 16 4 16 1 0 -3 -31 -14 -69 -26 -58 -18 -76 -29 -113 -70 -40 -44
-43 -46 -42 -22 1 14 3 28 4 31 1 3 2 8 1 13 0 4 3 7 7 7 5 0 14 11 20 25 9
20 9 30 0 45 -12 19 -50 29 -46 13 4 -14 -13 -53 -23 -53 -13 0 -3 49 14 69
18 20 28 61 16 61 -5 0 -21 -7 -35 -16 -13 -9 -28 -13 -32 -9 -4 4 -1 10 6 12
6 3 12 11 12 18 0 7 23 28 52 46 39 25 48 35 34 37 -10 2 -42 -12 -70 -32 -38
-27 -52 -32 -54 -21 -5 23 47 84 85 100 42 18 43 33 1 27 -22 -3 -50 -24 -95
-68 -34 -35 -63 -60 -63 -55 0 16 41 126 55 148 12 18 25 23 58 23 50 0 89 -9
82 -20 -8 -14 104 18 138 39 41 25 72 26 120 6 39 -16 117 -20 117 -6 0 14
-145 61 -190 61 -23 0 -70 -7 -104 -16 -70 -18 -267 -35 -279 -24 -7 6 91 78
148 107 21 11 194 72 255 91 39 12 215 11 197 0z m966 -37 c65 -22 135 -50
155 -63 75 -45 133 -91 125 -98 -12 -10 -228 8 -272 23 -64 23 -127 20 -212
-8 -43 -15 -81 -31 -84 -36 -10 -14 68 -10 115 6 57 20 83 19 132 -6 49 -25
137 -35 195 -21 37 8 44 7 61 -12 24 -27 92 -172 84 -180 -3 -3 7 -6 22 -6 21
0 29 7 39 33 6 17 10 35 9 40 -5 18 17 5 23 -14 10 -30 19 -15 45 71 24 82 86
204 100 195 4 -3 10 -2 12 3 6 14 78 65 78 54 0 -5 -21 -56 -46 -113 -70 -157
-152 -374 -175 -464 -16 -61 -29 -188 -29 -285 0 -2 -5 1 -11 7 -15 15 -34
184 -32 286 1 46 -2 75 -8 72 -5 -4 -9 1 -9 9 0 9 -4 16 -8 16 -5 0 -16 26
-26 57 -10 32 -28 72 -40 89 -34 49 -91 94 -120 94 -32 0 -34 -16 -3 -23 29
-8 93 -75 101 -107 3 -14 3 -19 0 -12 -3 6 -11 12 -17 12 -6 0 -18 6 -26 14
-24 21 -91 57 -91 48 0 -4 13 -16 30 -25 16 -10 42 -35 57 -55 16 -20 31 -39
36 -40 9 -4 40 -62 33 -62 -2 0 -26 20 -53 45 -26 25 -57 48 -68 51 -31 10
-86 54 -79 65 3 5 10 7 15 4 5 -4 9 1 9 9 0 16 -54 59 -80 63 -22 4 -123 4
-140 0 -46 -11 -59 -19 -53 -34 5 -12 2 -15 -10 -10 -9 3 -17 2 -17 -3 0 -6
-5 -10 -11 -10 -10 0 -39 -24 -39 -33 0 -9 -87 -101 -127 -133 -37 -31 -45
-34 -65 -23 -13 6 -24 13 -26 14 -1 1 2 14 9 28 8 18 22 26 50 31 23 4 42 14
49 25 9 18 6 19 -38 18 l-47 -2 4 45 c3 25 5 58 5 74 l1 28 62 -5 c34 -4 65
-2 68 3 3 5 -19 17 -49 26 -53 17 -55 19 -54 51 1 23 6 33 17 33 9 1 30 7 46
15 29 13 29 14 7 21 -18 5 -20 9 -10 21 9 12 29 13 104 8 59 -5 94 -4 98 3 6
10 -17 15 -129 28 -33 4 -54 9 -47 11 6 3 12 11 12 19 0 7 17 25 38 39 33 23
44 25 112 21 52 -3 111 -17 193 -45z m-3526 -33 c-3 -7 -5 -2 -5 12 0 14 2 19
5 13 2 -7 2 -19 0 -25z m1687 -45 c52 -46 92 -115 112 -195 19 -75 28 -87 44
-58 12 22 12 21 36 -12 14 -18 21 -34 16 -36 -5 -1 -2 -33 7 -70 9 -37 15 -96
15 -132 0 -106 -16 -290 -26 -290 -4 0 -7 -5 -5 -11 1 -6 -4 -14 -10 -16 -10
-3 -13 14 -13 70 0 122 -57 300 -205 649 -36 83 -65 152 -65 154 0 11 60 -23
94 -53z m-754 -25 c47 -34 236 -46 385 -23 17 2 5 -2 -25 -11 -80 -22 -279
-14 -340 13 -25 11 -52 28 -60 38 -13 17 -13 18 0 10 8 -5 26 -17 40 -27z
m3805 -23 c-41 -18 -197 -28 -265 -17 -47 7 -36 9 80 10 74 1 149 6 165 11 44
14 55 11 20 -4z m-3866 -56 c134 -58 214 -66 423 -45 90 9 174 19 188 21 14 3
5 -2 -20 -11 -111 -38 -431 -75 -513 -60 -62 12 -226 136 -179 136 4 0 49 -18
101 -41z m4056 -25 c-66 -54 -111 -67 -219 -67 -112 1 -367 34 -436 58 l-45
15 45 -5 c25 -3 105 -12 178 -20 162 -19 250 -10 386 40 80 29 93 31 106 18
13 -13 12 -17 -15 -39z m1232 -16 c-55 -71 -85 -103 -92 -96 -10 10 54 103 84
121 36 22 38 13 8 -25z m-6567 2 c10 -10 29 -38 40 -62 l21 -43 -51 54 c-27
30 -50 58 -50 63 0 14 19 9 40 -12z m1537 -126 c-3 -3 -12 -4 -19 -1 -8 3 -5
6 6 6 11 1 17 -2 13 -5z m-1268 -30 c43 -9 39 -21 -9 -29 -22 -4 -40 -11 -40
-16 0 -5 -11 -9 -24 -9 -14 0 -28 -4 -31 -10 -3 -5 -26 -10 -51 -10 -46 0 -59
-14 -24 -25 27 -9 25 -24 -5 -35 -14 -5 -25 -13 -25 -17 0 -11 -96 -33 -142
-33 -19 0 -41 -6 -47 -14 -8 -9 -23 -12 -43 -9 -29 4 -31 3 -18 -12 8 -9 25
-21 38 -26 14 -5 22 -12 19 -16 -18 -17 -367 125 -375 153 -2 7 37 13 115 18
119 6 282 37 403 74 66 21 195 28 259 16z m6292 -24 c99 -29 351 -70 432 -70
20 0 37 -4 37 -9 0 -23 -251 -127 -350 -145 l-35 -6 30 20 c27 18 28 20 8 20
-12 0 -27 8 -32 19 -9 15 -27 20 -108 25 -140 9 -143 10 -143 23 0 6 -3 18 -6
26 -4 11 5 17 35 22 57 9 41 25 -25 25 -35 0 -53 4 -49 10 3 6 -8 18 -25 28
-72 40 -71 41 31 42 79 0 116 -6 200 -30z m-2513 -39 c14 -7 67 -91 57 -91 -3
0 -17 12 -30 26 -25 27 -51 24 -40 -5 4 -9 10 -35 14 -58 9 -47 9 -47 -49 -4
-19 14 -63 34 -97 46 -35 11 -62 25 -60 30 1 6 6 9 10 7 5 -1 6 7 2 18 -12 37
2 68 33 72 23 3 118 -21 160 -41z m806 -96 c42 -13 61 -35 29 -35 -10 0 -45 7
-76 15 -64 16 -97 19 -97 8 0 -5 17 -21 37 -37 20 -16 33 -24 29 -18 -5 8 -2
10 8 6 17 -7 22 -34 6 -34 -16 0 -64 24 -83 41 -22 20 -19 66 3 61 12 -3 13
-1 3 9 -15 15 -17 33 -4 24 5 -3 12 -1 16 5 4 6 22 2 48 -12 23 -12 60 -27 81
-33z m-3039 25 c-4 -7 2 -9 19 -4 19 4 26 2 26 -8 0 -12 -68 -38 -100 -38 -22
0 -8 37 18 47 36 14 44 15 37 3z m2324 -66 c12 -19 17 -33 12 -30 -5 4 -11 0
-14 -6 -2 -7 -11 3 -19 22 -13 31 -15 50 -3 50 1 0 12 -16 24 -36z m-1224 -18
c29 -19 42 -62 26 -87 -6 -10 -11 -27 -11 -37 0 -24 -19 -42 -45 -42 -25 0
-199 -83 -210 -100 -13 -21 0 -19 54 5 89 42 169 59 214 45 40 -12 49 -41 14
-46 -51 -7 -52 -15 -7 -36 46 -21 73 -44 78 -66 1 -7 -2 -12 -8 -12 -5 0 -1
-9 10 -20 35 -35 100 -195 100 -244 0 -29 -27 -41 -49 -22 -9 8 -52 49 -96 90
-44 42 -93 81 -110 88 -16 6 -43 22 -58 35 -22 18 -41 23 -83 23 -31 0 -53 4
-50 9 9 14 -16 19 -105 20 -67 0 -91 -3 -116 -19 -36 -21 -96 -98 -87 -111 2
-5 22 1 44 12 21 11 57 20 80 21 61 1 177 -60 253 -133 l62 -59 -62 26 c-70
30 -113 27 -113 -6 0 -11 5 -20 11 -20 7 0 47 -34 90 -75 43 -41 83 -75 89
-75 14 0 40 -55 40 -85 0 -23 -2 -25 -21 -14 -12 6 -24 19 -26 30 -3 10 -9 17
-13 14 -4 -2 -19 9 -34 25 -35 40 -53 38 -27 -4 12 -18 21 -42 21 -53 0 -10 5
-24 12 -31 9 -9 9 -12 0 -12 -7 0 -12 -7 -12 -15 0 -16 60 -113 85 -139 9 -9
14 -20 11 -25 -3 -5 2 -19 12 -32 13 -17 18 -37 15 -68 -2 -31 3 -51 17 -71
11 -16 20 -41 20 -58 0 -16 7 -35 15 -42 8 -7 15 -21 15 -32 0 -10 18 -54 39
-96 64 -126 99 -218 120 -320 15 -71 14 -72 -12 -72 -26 0 -83 79 -136 190
-39 80 -81 152 -104 177 -9 11 -17 25 -17 31 0 7 -4 12 -10 12 -5 0 -10 4 -10
10 0 12 -160 254 -172 258 -4 2 -6 8 -2 13 3 5 1 9 -5 9 -5 0 -19 20 -31 44
-11 24 -36 57 -55 74 -19 16 -33 31 -30 34 6 6 -136 144 -186 181 -20 15 -41
27 -48 27 -7 0 -20 -19 -30 -42 -59 -137 -19 -406 105 -718 19 -47 34 -88 34
-92 0 -19 -21 -5 -49 33 -70 97 -161 430 -161 593 0 78 30 195 63 245 38 58
174 141 230 141 20 0 20 1 5 16 -9 9 -31 19 -49 23 l-34 7 24 13 c29 16 91 19
144 7 24 -5 37 -5 37 2 0 6 -15 14 -32 18 -18 3 -43 13 -56 22 -31 20 -116 11
-165 -18 -30 -18 -47 -41 -83 -116 -65 -133 -74 -126 -53 36 7 63 21 108 51
174 22 49 42 105 43 125 2 42 66 205 91 232 23 26 34 24 34 -6 0 -30 6 -31 46
-6 32 20 50 40 119 138 51 71 56 73 187 68 60 -2 95 -8 113 -19z m1037 7 c9
-10 17 -23 19 -28 7 -20 74 -108 110 -147 43 -44 59 -48 59 -13 0 59 51 9 109
-108 22 -45 43 -95 45 -111 3 -16 8 -50 12 -75 4 -25 20 -84 36 -131 17 -50
31 -116 34 -160 l5 -75 -24 27 c-14 15 -32 51 -41 81 -31 107 -87 141 -220
133 -43 -2 -83 -9 -89 -15 -6 -6 -22 -11 -36 -11 -18 0 -22 -3 -13 -9 9 -5 -5
-10 -40 -15 -29 -3 -64 -9 -77 -12 -21 -6 -22 -5 -12 14 6 12 39 40 72 62 132
90 212 109 290 69 23 -11 43 -18 46 -15 9 8 -36 73 -73 105 -29 26 -43 31 -85
31 -28 0 -59 -5 -70 -11 -11 -5 -28 -8 -37 -6 -13 3 -11 7 11 17 15 7 27 17
27 22 0 5 -10 3 -22 -3 -13 -7 -36 -12 -53 -11 -25 1 -26 -1 -10 -7 16 -7 9
-10 -30 -15 -57 -8 -134 -42 -142 -62 -3 -8 -11 -14 -17 -14 -7 0 -22 -11 -34
-25 -12 -14 -30 -25 -40 -25 -22 0 -79 -27 -88 -42 -4 -6 -2 -13 4 -17 8 -4 4
-12 -9 -21 -12 -8 -27 -20 -34 -27 -7 -7 -15 -9 -19 -6 -3 3 -15 -2 -26 -12
-19 -18 -20 -17 -20 5 0 40 94 235 133 278 19 20 19 22 3 16 -14 -6 -17 -2
-14 17 1 13 8 24 13 25 29 3 75 28 75 40 0 11 -8 13 -34 9 -18 -4 -36 -3 -40
3 -8 13 30 51 60 58 34 9 124 -11 197 -43 57 -26 84 -25 56 1 -16 16 -170 82
-181 78 -5 -1 -8 3 -8 8 0 6 -13 10 -30 10 -20 0 -30 5 -30 15 0 8 6 15 13 15
8 0 7 4 -3 10 -8 5 -12 10 -7 10 4 0 -4 17 -17 39 l-25 39 30 6 c17 3 28 10
24 15 -8 15 70 29 166 30 70 1 89 -2 101 -16z m211 -48 c-3 -9 -8 -14 -10 -11
-3 3 -2 9 2 15 9 16 15 13 8 -4z m-4073 -75 c41 -12 77 -26 80 -30 3 -4 12
-10 20 -14 25 -10 -41 4 -112 25 -47 14 -71 27 -79 42 -10 19 -10 20 2 11 8
-7 48 -22 89 -34z m6450 32 c0 -14 -56 -41 -130 -61 -40 -12 -76 -19 -78 -16
-6 5 84 45 102 45 7 0 16 3 20 8 7 7 64 30 79 31 4 1 7 -3 7 -7z m-2343 -44
c-3 -8 -6 -5 -6 6 -1 11 2 17 5 13 3 -3 4 -12 1 -19z m478 -64 c74 -6 154 -30
155 -46 0 -7 -55 -2 -68 6 -4 3 -14 1 -22 -4 -12 -7 -8 -15 19 -40 26 -22 30
-30 17 -30 -10 0 -14 -5 -10 -11 3 -6 -4 -5 -17 4 -13 8 -57 27 -96 43 -52 21
-73 34 -73 47 0 9 -6 17 -13 17 -8 0 -14 7 -14 16 0 11 7 14 21 10 12 -3 57
-8 101 -12z m-2712 -11 c-7 -2 -13 -13 -13 -24 0 -10 -6 -19 -13 -19 -7 0 -22
-8 -33 -19 -25 -23 -64 -36 -64 -22 0 5 5 13 10 16 18 11 11 20 -30 39 -39 19
-41 19 -54 1 -7 -10 -18 -15 -24 -11 -22 13 11 34 48 31 20 -2 42 0 50 5 8 6
42 9 75 9 33 0 54 -3 48 -6z m-1815 -25 c7 -7 8 -17 2 -28 -5 -9 -7 -25 -5
-36 1 -10 -8 -39 -21 -63 -13 -24 -23 -45 -22 -47 2 -1 21 10 43 25 90 61 164
73 161 25 -1 -26 -22 -38 -73 -43 -7 0 -13 -6 -13 -12 0 -5 5 -7 10 -4 6 3 10
4 10 2 0 -8 -72 -50 -115 -68 -48 -20 -51 -36 -9 -58 l32 -17 -67 -31 c-36
-17 -81 -34 -99 -38 -18 -4 -29 -11 -26 -16 8 -14 231 -2 290 16 56 17 104 19
104 6 0 -14 -94 -46 -175 -61 -38 -7 -75 -16 -80 -21 -6 -4 -39 -11 -75 -15
-36 -3 -73 -11 -83 -16 -18 -9 -193 18 -210 32 -5 4 2 15 15 24 198 140 230
175 320 351 29 58 58 105 64 105 5 0 15 -5 22 -12z m6289 -50 c73 -155 167
-267 298 -356 38 -26 68 -51 67 -57 -1 -5 -15 -13 -30 -17 -49 -14 -167 -26
-177 -18 -5 4 -36 10 -67 14 -145 16 -412 103 -350 114 13 2 43 -3 68 -12 63
-21 321 -43 336 -28 8 8 8 12 -3 16 -8 2 -36 11 -64 19 -27 9 -68 23 -90 33
l-40 16 38 19 c44 23 48 44 10 54 -16 3 -55 24 -88 45 -33 21 -76 46 -97 56
-27 12 -37 24 -40 46 -5 29 -5 29 39 23 52 -7 87 -19 122 -44 47 -32 57 -32
55 3 -1 17 -11 55 -22 84 -30 77 -2 69 35 -10z m-1687 -78 c14 -7 36 -21 49
-31 22 -18 22 -19 4 -19 -16 0 -19 -5 -15 -25 5 -28 -9 -33 -28 -10 -15 18
-31 20 -27 3 1 -8 -11 -14 -28 -16 -16 -2 -27 0 -22 4 4 4 0 16 -9 25 -17 19
-27 66 -18 81 7 11 64 4 94 -12z m-2849 -9 c0 -3 2 -14 4 -23 2 -10 -3 -18
-11 -18 -8 0 -14 -5 -14 -11 0 -6 -7 -9 -15 -5 -8 3 -28 -7 -45 -21 l-31 -26
4 44 c2 24 9 44 15 44 6 0 16 5 22 11 11 11 69 15 71 5z m764 -51 c3 -5 1 -10
-4 -10 -6 0 -11 5 -11 10 0 6 2 10 4 10 3 0 8 -4 11 -10z m1849 -95 c27 -13
53 -22 59 -18 6 3 7 1 3 -5 -4 -7 -1 -12 7 -12 7 0 22 -10 33 -22 28 -32 78
-112 65 -104 -6 4 -11 1 -11 -6 -1 -8 -6 -6 -15 6 -15 19 -45 31 -45 18 0 -4
16 -30 36 -57 35 -50 35 -50 12 -56 -13 -3 -29 1 -36 8 -7 7 -17 13 -22 13
-14 0 -135 104 -140 120 -8 30 -12 140 -3 140 4 0 30 -11 57 -25z m-2395 -14
c-6 -17 -17 -35 -25 -42 -8 -6 -14 -17 -14 -23 0 -6 -11 -23 -23 -36 -19 -20
-22 -29 -13 -44 8 -14 8 -20 -1 -23 -6 -2 -21 -13 -34 -24 -14 -12 -26 -16
-32 -10 -5 5 -16 7 -23 4 -12 -4 -11 2 1 36 15 44 14 47 -17 30 -32 -17 -33
-2 -3 40 31 46 59 67 130 98 64 29 66 28 54 -6z m3221 -96 c0 -8 -4 -15 -10
-15 -5 0 -7 7 -4 15 4 8 8 15 10 15 2 0 4 -7 4 -15z m-1184 -30 c39 -16 37
-35 -4 -35 -15 0 -38 -9 -52 -20 l-25 -20 49 0 c52 0 88 -17 163 -77 58 -46
84 -93 104 -188 27 -131 6 -283 -72 -518 -38 -113 -102 -233 -107 -200 -2 13
10 58 27 100 17 43 32 89 34 103 1 14 8 35 15 46 14 27 47 180 62 294 12 93 9
209 -8 252 -13 31 -48 40 -77 18 -40 -29 -255 -251 -255 -263 0 -7 -11 -24
-25 -39 -14 -15 -25 -32 -25 -37 0 -5 -8 -16 -19 -23 -10 -7 -19 -17 -20 -23
-4 -27 -13 -45 -22 -40 -5 4 -9 1 -9 -6 0 -7 -11 -27 -25 -45 -14 -18 -25 -37
-25 -42 0 -6 -6 -12 -14 -15 -7 -3 -17 -18 -20 -33 -4 -15 -18 -41 -32 -58
-58 -74 -96 -131 -122 -184 -68 -136 -142 -246 -168 -250 -21 -3 -21 -1 -9 65
16 88 46 177 98 283 22 47 40 95 38 107 -1 11 3 24 8 28 6 3 11 21 11 39 0 42
21 84 39 78 9 -3 11 2 6 17 -7 22 10 30 18 9 3 -7 6 -1 6 15 1 15 6 27 11 27
6 0 10 4 10 10 0 5 -6 8 -12 6 -7 -1 -10 -1 -6 1 4 3 12 23 18 46 14 56 31 89
53 106 10 7 16 19 13 26 -6 16 24 45 47 45 14 0 17 10 17 49 0 28 5 53 10 56
15 9 12 27 -2 20 -7 -4 -6 0 3 7 10 8 24 31 33 52 19 45 21 47 -90 -51 -39
-35 -75 -63 -79 -63 -12 0 5 50 29 86 33 49 119 137 149 153 15 8 29 22 33 33
3 10 14 18 24 18 10 0 22 5 26 11 10 17 66 38 102 39 18 0 49 -7 68 -15z
m-2837 -97 c51 -108 181 -304 231 -350 17 -16 30 -30 30 -33 0 -3 2 -5 5 -5
10 0 45 -40 70 -80 19 -31 32 -40 53 -40 15 0 37 -3 50 -6 18 -5 22 -2 22 15
0 13 4 19 10 16 6 -4 7 -11 3 -18 -11 -18 -3 -91 12 -107 13 -12 17 -11 35 8
24 26 32 28 24 7 -4 -8 -10 -15 -16 -15 -5 0 -6 -5 -2 -12 4 -7 3 -8 -4 -4 -7
4 -12 2 -12 -3 0 -6 5 -11 10 -11 6 0 10 -13 10 -30 0 -16 4 -30 8 -30 4 0 8
-16 8 -35 0 -19 5 -40 12 -47 9 -9 12 -6 12 16 0 18 -4 25 -12 20 -7 -4 -8 -3
-4 5 4 6 11 9 16 6 4 -3 10 -2 13 2 2 5 2 3 1 -4 -4 -15 15 -85 26 -96 4 -5
22 -1 40 8 18 9 29 12 25 5 -4 -7 -2 -23 5 -36 13 -23 5 -58 -31 -126 -15 -28
-11 -40 11 -33 18 6 20 2 20 -49 0 -56 17 -85 27 -47 8 29 26 26 21 -3 -8 -42
7 -51 31 -17 26 36 64 61 55 36 -4 -8 -10 -15 -15 -15 -5 0 -9 -5 -9 -11 0 -5
4 -8 9 -5 4 3 6 -6 3 -21 -3 -18 -1 -24 7 -19 6 4 11 2 11 -4 0 -6 4 -9 9 -6
4 3 13 -6 19 -19 10 -21 9 -28 -8 -45 -11 -11 -19 -23 -19 -27 4 -19 -15 -72
-26 -77 -7 -2 -11 -15 -8 -29 3 -14 0 -28 -6 -31 -12 -8 -15 -86 -3 -86 4 0
16 13 25 30 22 37 45 30 42 -14 -1 -18 -5 -37 -7 -42 -3 -5 -3 -23 -1 -41 4
-23 9 -30 20 -26 12 5 12 7 1 14 -10 7 -10 9 0 9 6 0 12 7 12 15 0 10 10 15
29 15 16 0 31 6 34 13 2 6 2 2 1 -10 -5 -26 13 -40 29 -24 6 6 21 11 33 11 21
0 22 -4 17 -37 -4 -21 -16 -46 -27 -56 -12 -10 -15 -16 -8 -12 7 4 12 -1 12
-13 0 -22 26 -37 35 -21 4 5 3 18 0 29 -10 30 4 80 20 74 7 -3 16 3 19 14 5
14 13 18 32 14 14 -2 28 -10 30 -17 3 -7 14 -11 25 -8 23 6 23 2 -1 58 -24 56
-25 74 -4 89 13 10 2 26 -79 109 -52 54 -100 110 -105 125 -18 47 -82 253 -82
263 0 18 16 8 33 -20 10 -17 39 -51 65 -77 26 -26 46 -52 44 -58 -2 -6 -1 -8
3 -5 7 8 127 -109 181 -176 21 -27 49 -61 62 -75 23 -26 28 -40 13 -40 -17 0
3 -45 44 -100 47 -63 56 -82 46 -99 -5 -7 -12 -3 -21 14 -15 27 -36 35 -26 9
4 -11 -1 -10 -24 6 -16 11 -32 25 -35 30 -4 6 -11 10 -16 10 -6 0 -1 -13 10
-29 25 -35 26 -42 5 -34 -13 5 -15 2 -9 -18 4 -13 14 -30 24 -38 14 -12 13
-12 -8 -6 -16 5 -21 4 -17 -4 4 -6 0 -14 -8 -17 -9 -3 -13 -10 -10 -15 3 -5 0
-9 -5 -9 -6 0 -11 6 -11 13 0 8 -2 9 -8 1 -4 -6 -17 -14 -30 -18 -12 -4 -20
-12 -17 -17 4 -5 -5 -9 -18 -9 -14 0 -30 -6 -36 -14 -7 -8 -30 -17 -52 -21
-24 -4 -39 -12 -39 -21 0 -8 -10 -14 -26 -14 -14 0 -23 -4 -20 -8 13 -21 -15
-35 -73 -37 -33 -2 -58 1 -56 6 3 4 -3 17 -15 29 -24 24 -129 285 -170 422
-16 54 -37 149 -46 211 -9 61 -20 122 -25 134 -5 13 -7 28 -5 35 1 7 1 9 -2 5
-2 -4 -21 16 -42 45 -21 29 -69 81 -108 115 -43 38 -97 103 -143 170 -41 59
-76 111 -78 116 -3 8 -27 35 -81 92 -35 37 -80 120 -80 149 0 15 12 3 43 -41
23 -34 78 -106 122 -161 44 -55 92 -123 107 -151 29 -53 58 -68 58 -29 0 33
-66 144 -146 243 -115 145 -264 405 -289 508 -13 52 5 27 54 -75z m3976 -51
c-42 -152 -103 -281 -182 -388 -31 -41 -76 -105 -101 -144 -116 -180 -134
-203 -203 -260 -87 -72 -119 -133 -144 -270 -31 -176 -93 -414 -125 -480 -5
-11 -19 -45 -30 -75 -45 -116 -73 -171 -81 -158 -7 10 -9 9 -9 -4 0 -12 -6
-15 -22 -10 -13 3 -25 8 -28 11 -3 4 -54 31 -113 61 -60 30 -111 58 -113 62
-3 5 -13 8 -23 8 -10 0 -21 9 -24 20 -3 11 -1 20 4 20 5 0 9 12 9 26 0 18 6
28 20 31 12 3 20 12 18 22 -1 9 2 18 7 19 28 10 65 38 65 49 0 21 21 15 27 -7
6 -22 29 -27 36 -7 3 7 6 5 6 -5 1 -11 9 -18 21 -18 18 0 20 7 20 56 0 30 4
53 9 50 5 -3 7 -14 4 -24 -3 -12 6 -26 26 -41 16 -13 33 -36 36 -52 4 -16 11
-32 17 -35 8 -5 9 14 5 64 -3 44 -2 72 4 72 5 0 2 15 -6 33 -15 30 -13 29 24
-13 23 -24 41 -49 41 -54 0 -5 3 -6 7 -2 9 9 4 108 -7 121 -14 19 -17 61 -4
73 10 9 14 9 17 -1 2 -6 2 -2 0 11 -3 21 -48 99 -64 112 -3 3 -12 16 -19 29
-11 21 -10 26 4 36 9 7 16 18 17 26 0 10 2 10 6 2 2 -7 5 -16 5 -20 0 -5 9
-14 19 -21 11 -7 19 -20 19 -28 0 -8 7 -14 15 -14 9 0 15 9 15 25 0 14 5 25
11 25 6 0 9 6 6 13 -3 8 1 14 9 14 8 0 14 -4 14 -8 0 -4 5 -20 12 -36 11 -27
12 -26 18 32 4 33 3 67 -1 76 -7 13 -4 15 15 12 21 -4 24 0 29 44 3 26 1 56
-5 66 -5 11 -7 28 -5 39 4 13 2 17 -7 11 -6 -4 -4 -1 5 7 9 8 24 20 34 25 12
7 17 26 19 73 2 42 8 68 21 82 12 13 16 30 13 54 -3 30 -1 35 15 32 11 -1 26
-11 33 -21 20 -27 40 -4 48 55 7 49 7 49 41 48 19 -1 35 -6 35 -12 0 -14 46
36 106 114 72 96 151 223 200 325 51 105 56 99 14 -15 -40 -113 -109 -238
-186 -341 -70 -94 -134 -209 -134 -240 0 -39 30 -17 66 49 21 37 75 117 120
177 102 137 154 238 200 391 39 130 55 167 62 146 2 -7 -13 -72 -33 -145z
m-1488 111 c-3 -8 -6 -5 -6 6 -1 11 2 17 5 13 3 -3 4 -12 1 -19z m-2300 6 c-3
-3 -12 -4 -19 -1 -8 3 -5 6 6 6 11 1 17 -2 13 -5z m4857 -140 c9 -3 39 -38 68
-77 47 -63 185 -187 209 -187 5 0 9 -4 9 -9 0 -4 -24 -11 -52 -14 -80 -9 -227
-54 -283 -88 -27 -17 -93 -65 -145 -106 -86 -69 -94 -71 -35 -9 77 82 265 203
343 221 l45 11 -54 17 c-43 14 -62 28 -94 67 -22 28 -39 55 -37 61 1 6 -2 26
-8 44 -9 26 -8 38 2 54 7 12 14 21 15 21 1 0 8 -3 17 -6z m-6141 -24 c-4 -15
0 -20 13 -20 12 0 15 -3 8 -8 -6 -4 -15 -26 -18 -49 -5 -28 -19 -52 -43 -77
-20 -20 -40 -36 -45 -36 -5 0 -6 -4 -3 -10 3 -5 0 -10 -7 -10 -8 0 -23 -6 -33
-14 -18 -13 -12 -17 70 -57 50 -24 114 -61 144 -84 29 -22 67 -50 83 -61 52
-39 251 -238 273 -275 14 -22 -45 31 -95 85 -69 75 -288 246 -355 277 -71 33
-225 79 -266 79 -45 0 -42 16 8 53 53 38 156 143 192 195 16 23 30 32 51 32
23 0 27 -3 23 -20z m1907 -58 c0 -26 -7 -45 -20 -57 -24 -21 -74 -105 -67
-111 3 -3 23 21 46 53 l41 57 -6 -54 c-5 -45 -13 -62 -42 -92 -38 -40 -37 -66
1 -30 13 12 26 22 29 22 3 0 8 -33 11 -72 3 -40 8 -80 12 -89 10 -27 -38 -70
-86 -76 l-42 -6 6 66 c3 37 3 67 -1 67 -9 0 -39 -64 -45 -95 -6 -33 -18 -53
-33 -59 -17 -7 -18 8 -1 26 6 7 13 22 14 33 1 11 5 41 8 68 6 38 4 47 -8 47
-9 0 -22 -9 -30 -21 -15 -20 -15 -20 -21 8 -7 35 16 125 34 131 7 3 10 0 6 -6
-3 -5 1 -13 9 -16 14 -5 35 27 35 52 0 4 16 33 35 65 19 31 32 57 30 57 -2 0
11 16 31 35 19 19 39 35 44 35 6 0 10 -17 10 -38z m2387 6 c17 -20 40 -63 106
-205 9 -21 11 -21 23 -5 19 26 33 5 39 -58 3 -30 11 -65 16 -76 8 -16 8 -27 0
-40 -9 -17 -10 -16 -11 9 0 16 -4 26 -10 22 -5 -3 -10 0 -10 8 0 16 -27 43
-35 35 -3 -3 2 -40 10 -84 8 -43 15 -83 15 -89 0 -20 -29 34 -49 90 -32 90
-43 93 -36 8 5 -72 5 -73 -19 -73 -13 0 -26 -6 -28 -12 -3 -9 -9 -8 -22 5 -10
9 -21 17 -26 17 -18 0 -20 38 -9 132 l12 99 22 -21 c37 -35 51 -22 16 14 -37
38 -50 84 -51 184 0 69 11 79 47 40z m-2750 -338 c1 -11 -2 -20 -7 -20 -6 0
-7 17 -1 38 3 8 7 -1 8 -18z m136 -43 c-5 -24 -33 -34 -33 -11 0 10 21 30 36
34 1 0 -1 -10 -3 -23z m2808 -30 c-10 -9 -11 -8 -5 6 3 10 9 15 12 12 3 -3 0
-11 -7 -18z m1581 -211 c117 -62 120 -65 87 -70 -65 -10 -149 -13 -149 -4 0 4
-10 8 -22 8 -21 1 -21 2 -6 13 15 12 15 14 -3 25 -11 7 -19 23 -19 40 0 15 -5
33 -12 40 -22 22 1 12 124 -52z m-5882 45 c0 -5 -7 -14 -15 -21 -9 -7 -13 -21
-10 -31 3 -9 1 -20 -5 -24 -19 -12 -11 -43 13 -49 12 -3 -30 -3 -93 0 -63 3
-118 8 -122 12 -6 6 205 121 225 122 4 0 7 -4 7 -9z m4181 -93 c12 -22 11 -22
-8 -5 -11 9 -23 14 -28 10 -4 -5 -5 -2 -1 5 11 18 24 15 37 -10z m-766 -55
c-8 -27 -27 -91 -41 -143 -14 -52 -37 -135 -50 -184 -28 -100 -66 -195 -72
-178 -4 13 11 93 24 126 5 14 4 17 -4 12 -16 -9 -15 -8 8 75 31 114 88 255
128 317 21 33 23 27 7 -25z m-345 8 c0 -6 -4 -13 -10 -16 -16 -10 -12 -25 5
-19 24 10 17 -10 -12 -37 -15 -13 -21 -16 -13 -6 12 16 12 20 0 27 -11 7 -12
14 -2 34 11 25 32 36 32 17z m-652 -73 c32 -64 95 -289 107 -385 15 -119 -29
-22 -74 162 -30 121 -65 247 -79 283 -14 39 18 -3 46 -60z m322 19 c0 -5 -7
-4 -15 3 -8 7 -15 20 -15 29 1 13 3 13 15 -3 8 -11 15 -24 15 -29z m1248 -14
c-5 -21 -14 -43 -19 -49 -5 -6 -17 -54 -27 -106 -16 -86 -23 -102 -62 -149
-69 -85 -113 -129 -143 -145 -28 -15 -35 -52 -9 -46 20 4 13 -16 -7 -23 -23
-7 -32 -36 -18 -60 8 -15 7 -17 -7 -12 -10 4 -16 1 -16 -9 0 -8 5 -12 10 -9 6
3 10 3 10 -2 -1 -19 -19 -34 -46 -36 -26 -2 -29 1 -32 31 -2 17 -7 32 -13 32
-5 0 -9 7 -9 15 0 8 -4 15 -9 15 -16 0 -19 39 -4 52 11 9 13 23 9 50 -6 35 -2
44 32 86 21 26 44 59 50 75 6 15 33 42 59 59 60 41 188 169 226 226 16 23 30
42 32 42 2 0 -1 -17 -7 -37z m1137 -542 c-6 -5 -175 61 -182 72 -6 10 29 6 72
-8 17 -6 16 -3 -5 13 -21 18 -22 22 -10 37 13 16 19 12 71 -46 32 -35 56 -66
54 -68z m-4335 100 c-17 -33 -13 -42 16 -31 31 12 54 13 54 2 0 -8 -163 -72
-169 -67 -5 6 90 115 101 115 5 0 4 -9 -2 -19z m2782 -16 c-5 -26 -16 -32 -27
-15 -7 11 11 40 25 40 4 0 5 -11 2 -25z m-1717 -85 c3 -5 2 -10 -4 -10 -5 0
-13 5 -16 10 -3 6 -2 10 4 10 5 0 13 -4 16 -10z m1700 -9 c-3 -6 -11 -11 -16
-11 -5 0 -4 6 3 14 14 16 24 13 13 -3z m699 -68 c-15 -72 -65 -208 -108 -293
-56 -110 -72 -135 -81 -130 -12 6 -7 54 6 58 5 2 9 14 9 27 0 12 21 69 46 126
26 57 53 121 60 143 29 79 67 157 75 149 5 -5 1 -41 -7 -80z m458 50 c6 -72
-3 -473 -10 -473 -15 0 -32 119 -42 295 l-10 180 22 17 c32 25 36 23 40 -19z
m-3557 13 c11 -11 12 -36 5 -137 -9 -123 -34 -341 -45 -389 -3 -14 -11 -53
-17 -88 -20 -114 -19 -57 2 98 14 107 20 208 20 341 0 190 3 207 35 175z m407
-63 c17 -38 60 -140 95 -228 36 -88 69 -165 74 -171 7 -9 3 -12 -15 -10 -13 0
-22 4 -19 9 2 4 0 7 -5 7 -10 0 -99 182 -138 283 -24 61 -44 177 -30 177 4 0
21 -30 38 -67z m191 -448 c-7 -21 -13 -19 -13 6 0 11 4 18 10 14 5 -3 7 -12 3
-20z m2986 -199 c1 -11 -1 -17 -3 -15 -8 7 -16 60 -21 134 l-4 70 13 -85 c8
-47 15 -94 15 -104z m-3663 -74 c-11 -10 -12 3 -7 53 l6 50 3 -49 c2 -26 1
-51 -2 -54z m3674 -24 c0 -32 -3 -39 -10 -28 -13 20 -13 70 0 70 6 0 10 -19
10 -42z m-3703 -95 c-3 -10 -5 -4 -5 12 0 17 2 24 5 18 2 -7 2 -21 0 -30z
m973 -103 c4 -8 11 -24 17 -35 6 -11 17 -45 26 -76 18 -60 59 -140 82 -159 21
-18 19 -4 -15 103 -35 111 -37 127 -11 127 25 0 73 -62 77 -98 2 -32 29 -153
43 -202 14 -46 14 -61 -1 -58 -7 2 -12 -4 -10 -12 3 -12 1 -12 -9 -3 -10 10
-15 9 -24 -4 -10 -14 -17 -9 -47 38 -47 73 -111 194 -133 251 -9 25 -28 57
-41 69 -15 14 -24 34 -24 51 0 27 3 29 31 26 18 -2 35 -10 39 -18z m1830 -10
c0 -32 -14 -55 -29 -46 -11 7 -19 -9 -57 -104 -23 -58 -109 -218 -135 -250
-14 -18 -22 -21 -26 -12 -3 7 -14 22 -26 33 -11 10 -17 19 -11 19 5 0 4 4 -2
8 -8 5 -7 35 7 109 19 109 32 144 51 140 7 -1 12 5 13 13 0 13 55 30 55 17 0
-14 -23 -67 -30 -67 -4 0 -7 -10 -7 -22 0 -13 -3 -40 -8 -61 -4 -21 -5 -40 -3
-43 10 -10 56 74 82 150 45 130 56 145 104 143 17 -1 22 -7 22 -27z m-1892
-65 c-3 -3 -9 2 -12 12 -6 14 -5 15 5 6 7 -7 10 -15 7 -18z m602 -521 c0 -12
5 -26 10 -29 6 -4 8 -10 5 -15 -6 -10 26 -102 40 -112 6 -4 7 -8 3 -8 -9 0 28
-104 39 -107 5 -2 8 18 7 44 l-3 47 31 -33 c27 -29 32 -31 40 -16 9 15 11 15
23 -2 7 -10 20 -54 30 -98 9 -44 32 -127 51 -185 25 -78 34 -123 34 -175 0
-43 -4 -65 -9 -60 -41 41 -267 493 -320 640 -22 61 -56 151 -74 200 -26 66
-33 100 -30 129 4 26 8 34 14 25 6 -9 9 2 9 31 1 40 6 29 51 -104 27 -81 49
-159 49 -172z m771 253 c0 -12 3 -16 6 -9 8 21 23 2 23 -31 0 -50 -22 -118
-94 -302 -95 -239 -305 -653 -336 -663 -18 -6 -8 110 19 208 11 41 33 135 48
209 18 86 33 136 42 139 8 3 11 0 7 -7 -11 -16 24 -26 45 -13 25 16 39 15 39
-3 0 -15 -44 -135 -61 -167 -12 -23 -11 -31 1 -23 9 5 104 195 121 240 17 49
49 176 59 239 6 38 22 95 35 127 14 32 25 66 25 74 0 25 20 7 21 -18z"/>
<path d="M1881 8807 c2 -1 11 -8 20 -15 13 -9 16 -9 16 3 0 8 -9 15 -20 15
-11 0 -18 -1 -16 -3z"/>
<path d="M1946 8747 c3 -10 9 -15 12 -12 3 3 0 11 -7 18 -10 9 -11 8 -5 -6z"/>
<path d="M1775 8548 c16 -51 67 -144 86 -157 12 -7 19 -9 17 -4 -2 4 -23 47
-46 96 -23 48 -47 87 -53 87 -6 0 -8 -9 -4 -22z"/>
<path d="M2348 8314 c-4 -3 0 -13 8 -21 19 -20 28 -12 11 11 -7 9 -16 14 -19
10z"/>
<path d="M8296 8534 c-8 -25 -29 -68 -46 -95 -34 -56 -36 -61 -15 -53 17 7 80
115 90 155 12 47 -13 41 -29 -7z"/>
<path d="M8110 9056 c0 -8 4 -17 9 -20 5 -4 7 3 4 14 -6 23 -13 26 -13 6z"/>
<path d="M3810 8259 c0 -11 4 -18 10 -14 5 3 7 12 3 20 -7 21 -13 19 -13 -6z"/>
<path d="M8129 7897 c-15 -12 -43 -35 -63 -50 -21 -16 -35 -31 -32 -34 9 -9
85 47 107 79 24 34 22 34 -12 5z"/>
<path d="M1970 7881 c18 -35 94 -79 105 -61 3 5 -12 18 -33 29 -21 11 -44 27
-51 35 -19 22 -34 20 -21 -3z"/>
<path d="M2775 7761 c-3 -5 -2 -12 2 -14 18 -10 84 -17 108 -11 20 5 23 9 14
20 -13 16 -114 20 -124 5z"/>
<path d="M3396 7504 c-3 -8 -2 -13 3 -9 5 3 11 -1 14 -7 2 -7 8 -10 12 -6 4 4
1 14 -8 22 -13 14 -16 14 -21 0z"/>
<path d="M7260 7760 c-11 -7 -8 -11 15 -20 33 -12 119 5 109 21 -7 12 -105 11
-124 -1z"/>
<path d="M2610 7292 c0 -12 48 -37 56 -29 3 3 -8 13 -25 22 -17 8 -31 12 -31
7z"/>
<path d="M3022 7029 c2 -6 8 -10 13 -10 5 0 11 4 13 10 2 6 -4 11 -13 11 -9 0
-15 -5 -13 -11z"/>
<path d="M3120 6975 c0 -15 -6 -16 -37 -10 -21 4 -51 9 -68 12 l-30 4 32 -28
c17 -15 46 -37 65 -48 18 -11 45 -42 60 -70 30 -56 98 -135 117 -135 13 0 10
17 -20 120 -26 89 -119 210 -119 155z"/>
<path d="M7485 7275 c-16 -13 -26 -24 -22 -25 14 0 67 33 67 42 0 14 -14 9
-45 -17z"/>
<path d="M7115 7030 c-3 -5 -3 -15 1 -21 6 -11 23 6 24 24 0 10 -18 9 -25 -3z"/>
<path d="M7000 6972 c-36 -28 -76 -106 -91 -177 -7 -33 -16 -68 -21 -77 -15
-31 12 -20 49 19 19 20 48 61 65 91 18 31 48 66 70 81 22 14 51 36 66 49 l27
23 -40 -5 c-22 -3 -52 -8 -67 -12 -20 -4 -27 -2 -30 11 -3 15 -5 15 -28 -3z"/>
<path d="M4640 6820 c0 -8 112 -60 128 -60 24 0 -2 30 -34 40 -19 6 -34 15
-34 19 0 4 -13 8 -30 8 -16 0 -30 -3 -30 -7z"/>
<path d="M4670 6524 c0 -13 111 -55 131 -49 30 10 13 21 -57 39 -69 18 -74 18
-74 10z"/>
<path d="M5546 6811 c-44 -15 -74 -41 -48 -41 21 0 102 40 102 50 0 5 -1 10
-2 9 -2 0 -25 -8 -52 -18z"/>
<path d="M7665 5779 c-4 -6 -5 -13 -1 -16 8 -8 56 6 56 17 0 13 -47 13 -55 -1z"/>
<path d="M7668 5663 c-10 -2 -18 -11 -18 -19 0 -21 44 -17 65 6 18 19 17 20
-6 19 -13 -1 -32 -3 -41 -6z"/>
<path d="M2362 5875 c0 -16 2 -22 5 -12 2 9 2 23 0 30 -3 6 -5 -1 -5 -18z"/>
<path d="M2450 5784 c0 -12 34 -33 53 -34 9 0 17 3 17 6 0 12 -34 33 -52 34
-10 0 -18 -3 -18 -6z"/>
<path d="M2470 5659 c0 -16 31 -38 53 -39 23 0 22 27 -2 40 -26 13 -51 13 -51
-1z"/>
<path d="M4788 6263 c7 -3 16 -2 19 1 4 3 -2 6 -13 5 -11 0 -14 -3 -6 -6z"/>
<path d="M4633 6119 c-18 -5 -33 -11 -33 -14 0 -2 36 -3 79 -2 44 1 76 6 72
10 -13 14 -83 17 -118 6z"/>
<path d="M5505 6116 c-16 -11 -9 -13 58 -12 65 1 73 3 54 13 -30 16 -89 16
-112 -1z"/>
<path d="M4468 5083 c-33 -26 -73 -60 -198 -166 -25 -21 -51 -43 -58 -49 -24
-18 -5 -20 49 -4 29 9 70 16 91 16 47 0 70 11 109 53 31 35 39 63 14 53 -8 -3
-22 -9 -30 -12 -33 -13 -6 34 59 104 38 41 15 44 -36 5z"/>
<path d="M4345 4320 c10 -11 20 -20 23 -20 3 0 -3 9 -13 20 -10 11 -20 20 -23
20 -3 0 3 -9 13 -20z"/>
<path d="M4670 4290 c0 -5 5 -10 11 -10 5 0 7 5 4 10 -3 6 -8 10 -11 10 -2 0
-4 -4 -4 -10z"/>
<path d="M5755 5094 c10 -16 31 -45 47 -65 36 -47 35 -57 -3 -51 -28 4 -30 3
-21 -14 6 -11 24 -33 39 -50 26 -28 36 -31 105 -37 42 -3 90 -13 108 -22 40
-21 53 -10 20 16 -46 37 -65 53 -160 137 -52 46 -108 91 -124 99 l-30 16 19
-29z"/>
<path d="M5765 4270 c3 -5 8 -10 11 -10 2 0 4 5 4 10 0 6 -5 10 -11 10 -5 0
-7 -4 -4 -10z"/>
<path d="M3740 3521 c0 -6 5 -13 10 -16 6 -3 10 1 10 9 0 9 -4 16 -10 16 -5 0
-10 -4 -10 -9z"/>
<path d="M4230 3165 c19 -19 36 -35 39 -35 3 0 -10 16 -29 35 -19 19 -36 35
-39 35 -3 0 10 -16 29 -35z"/>
<path d="M4050 2815 c0 -19 4 -35 9 -35 11 0 24 48 16 60 -13 21 -25 8 -25
-25z"/>
<path d="M6480 3514 c0 -14 3 -14 15 -4 8 7 15 14 15 16 0 2 -7 4 -15 4 -8 0
-15 -7 -15 -16z"/>
<path d="M6191 2903 c1 -22 2 -23 6 -8 3 11 10 23 17 27 7 5 5 8 -6 8 -13 0
-18 -7 -17 -27z"/>
<path d="M6180 2857 c-17 -14 -14 -60 3 -54 7 2 12 18 13 35 1 18 1 32 0 32
-1 0 -8 -6 -16 -13z"/>
<path d="M6080 2810 c0 -16 4 -30 9 -30 12 0 24 37 16 50 -12 20 -25 10 -25
-20z"/>
<path d="M6310 4249 c0 -14 40 -87 54 -99 25 -20 19 -3 -19 53 -19 28 -35 49
-35 46z"/>
<path d="M6040 3185 c-7 -9 -19 -14 -25 -11 -9 3 -11 -2 -8 -15 3 -11 6 -18 7
-17 0 2 12 15 25 31 14 15 22 27 19 27 -3 0 -11 -7 -18 -15z"/>
<path d="M5970 3109 c0 -5 5 -7 10 -4 6 3 10 8 10 11 0 2 -4 4 -10 4 -5 0 -10
-5 -10 -11z"/>
<path d="M4912 1053 c6 -16 17 -44 24 -63 7 -19 13 -27 14 -18 0 18 -36 108
-44 108 -3 0 0 -12 6 -27z"/>
<path d="M625 9941 c3 -6 -3 -14 -12 -20 -10 -6 -13 -11 -6 -11 6 0 15 5 18
10 4 6 12 7 18 3 7 -4 6 0 -2 10 -14 18 -26 23 -16 8z"/>
</g>
</svg>
